<?xml version="1.0" standalone="no"?>
<!DOCTYPE svg PUBLIC "-//W3C//DTD SVG 20010904//EN"
 "http://www.w3.org/TR/2001/REC-SVG-20010904/DTD/svg10.dtd">
<svg version="1.0" xmlns="http://www.w3.org/2000/svg"
 width="327.000000pt" height="550.000000pt" viewBox="0 0 327.000000 550.000000"
 preserveAspectRatio="xMidYMid meet">
<metadata>
Created by potrace 1.16, written by Peter Selinger 2001-2019
</metadata>
<g transform="translate(0.000000,550.000000) scale(0.100000,-0.100000)"
fill="#000000" stroke="none">
<path d="M1 5405 c1 -52 5 -93 9 -90 5 3 12 1 15 -5 4 -6 1 -9 -7 -8 -19 4
-24 -217 -6 -240 11 -13 11 -14 0 -8 -10 6 -13 3 -10 -10 3 -19 40 -27 63 -15
18 10 35 10 29 0 -3 -5 -9 -7 -14 -4 -5 3 -11 1 -14 -4 -3 -5 -19 -7 -35 -6
l-29 2 -1 -224 c0 -174 2 -222 12 -216 9 5 9 4 0 -8 -18 -22 -19 -1185 -1
-1207 10 -13 10 -14 0 -8 -9 6 -12 -32 -11 -178 1 -190 4 -207 41 -201 9 2 23
-4 30 -13 11 -13 11 -14 -2 -7 -21 13 -39 15 -46 4 -3 -5 -9 -7 -14 -4 -5 3
-9 -186 -9 -419 -1 -434 0 -436 35 -413 7 4 17 1 23 -6 8 -11 4 -13 -22 -13
l-32 1 -3 -128 c-1 -70 1 -126 5 -125 4 2 8 -1 8 -7 0 -5 -3 -9 -7 -8 -4 2 -7
-58 -7 -133 -1 -106 2 -134 11 -128 10 6 11 4 1 -7 -15 -15 -19 -224 -5 -215
5 3 9 -1 9 -9 0 -8 -4 -12 -9 -9 -10 6 -11 -40 -1 -50 10 -10 13 -37 2 -31 -5
4 -8 -257 -8 -624 l0 -630 272 2 c204 2 272 5 272 14 0 7 5 17 12 24 9 9 11 8
10 -2 -2 -8 -6 -20 -10 -26 -6 -10 103 -13 518 -12 289 0 523 4 521 8 -3 4 1
8 9 8 8 0 12 -4 8 -10 -7 -12 78 -6 96 7 11 8 13 8 7 -2 -10 -17 135 -17 153
1 8 6 11 7 8 1 -8 -14 112 -17 129 -3 8 7 14 7 18 0 4 -6 143 -10 381 -10 364
0 374 0 370 19 -2 11 1 22 6 25 5 4 6 11 3 17 -4 7 -2 8 5 4 7 -5 9 -12 3 -19
-4 -7 -8 -19 -8 -27 1 -13 36 -15 244 -17 133 -2 242 1 242 5 0 5 -6 14 -13
21 -8 9 -8 12 0 7 9 -5 11 82 11 359 0 275 -3 363 -11 358 -8 -4 -7 -1 1 9 9
12 10 18 2 23 -8 5 -8 11 -1 19 15 18 12 626 -3 645 -8 11 -8 13 0 8 15 -9 18
552 3 569 -7 8 -6 14 1 19 5 3 10 22 10 41 0 26 -3 33 -12 28 -10 -6 -10 -5
-1 7 17 22 18 1046 0 1067 -10 13 -9 14 1 8 10 -6 12 27 10 161 -2 133 -6 167
-16 165 -8 -1 -11 2 -7 8 3 6 10 8 14 5 5 -2 9 21 10 51 1 49 -1 55 -14 44 -8
-7 -12 -17 -8 -24 4 -6 -1 -5 -10 3 -18 14 -24 26 -8 17 4 -3 16 3 25 13 15
16 16 47 14 272 -2 204 -6 253 -16 251 -8 -1 -11 2 -7 8 3 6 10 8 14 6 4 -3 9
56 9 130 2 105 -1 133 -11 128 -9 -6 -9 -5 0 7 17 21 17 527 0 548 -9 11 -9
13 0 8 16 -10 16 292 -1 312 -8 12 -8 13 2 7 8 -5 12 0 12 18 0 20 -4 24 -21
21 -12 -3 -18 -1 -15 3 4 4 13 7 19 7 8 0 13 25 15 68 l3 68 -73 -2 c-40 -1
-79 -7 -87 -13 -11 -8 -13 -8 -8 1 6 9 -20 12 -105 12 -92 0 -115 -3 -131 -16
-14 -14 -18 -14 -15 -3 4 18 -38 26 -57 10 -9 -7 -15 -8 -20 0 -7 11 -287 15
-299 3 -9 -10 -37 -13 -31 -4 2 5 -124 9 -282 10 -274 2 -286 1 -272 -16 13
-17 13 -17 -7 0 -24 20 -94 23 -113 5 -11 -11 -12 -10 -7 0 10 17 -451 16
-473 -1 -9 -7 -12 -8 -8 -1 4 7 -19 10 -71 10 -58 -1 -76 -4 -74 -14 1 -8 -2
-11 -8 -7 -6 3 -8 10 -5 15 3 5 -234 9 -560 9 l-566 0 2 -94z m854 76 c3 -5 2
-12 -3 -15 -5 -3 -9 1 -9 9 0 17 3 19 12 6z m2384 -5 c9 -11 9 -16 -1 -22 -7
-4 -10 -4 -6 1 4 4 3 14 -3 22 -6 7 -9 13 -6 13 2 0 10 -6 16 -14z m-1799 -2
c0 -8 -19 -13 -24 -6 -3 5 1 9 9 9 8 0 15 -2 15 -3z m441 -61 c12 -16 12 -17
-2 -6 -9 7 -20 9 -24 5 -5 -4 -5 -1 -1 6 9 16 11 15 27 -5z m-667 -11 c3 -5
-1 -9 -9 -9 -8 0 -12 4 -9 9 3 4 7 8 9 8 2 0 6 -4 9 -8z m953 -5 c0 -8 -6 -14
-14 -14 -9 0 -10 4 -2 14 6 7 12 13 14 13 1 0 2 -6 2 -13z m303 7 c0 -8 -19
-13 -24 -6 -3 5 1 9 9 9 8 0 15 -2 15 -3z m-1806 -12 c3 -5 -1 -9 -9 -9 -8 0
-12 4 -9 9 3 4 7 8 9 8 2 0 6 -4 9 -8z m370 -10 c3 -5 -1 -9 -9 -9 -8 0 -12 4
-9 9 3 4 7 8 9 8 2 0 6 -4 9 -8z m871 -1 c-9 -8 -36 -10 -30 -2 2 4 11 8 20 8
8 0 13 -3 10 -6z m-124 -28 c13 -16 12 -17 -3 -4 -17 13 -22 21 -14 21 2 0 10
-8 17 -17z m864 2 c11 0 25 4 32 8 6 4 15 2 19 -4 4 -7 3 -9 -4 -5 -6 3 -13 2
-16 -2 -4 -8 -50 -9 -66 -2 -3 1 -9 2 -13 1 -5 -1 -6 3 -2 9 4 7 12 7 18 2 7
-4 21 -8 32 -7z m149 7 c3 -5 -1 -9 -9 -9 -8 0 -12 4 -9 9 3 4 7 8 9 8 2 0 6
-4 9 -8z m420 0 c3 -5 -1 -9 -9 -9 -8 0 -12 4 -9 9 3 4 7 8 9 8 2 0 6 -4 9 -8z
m-2850 -13 c3 -3 -5 -5 -19 -5 -13 0 -22 3 -19 7 4 8 30 6 38 -2z m-294 -5 c0
-8 -19 -13 -24 -6 -3 5 1 9 9 9 8 0 15 -2 15 -3z m140 0 c0 -8 -19 -13 -24 -6
-3 5 1 9 9 9 8 0 15 -2 15 -3z m300 0 c0 -8 -19 -13 -24 -6 -3 5 1 9 9 9 8 0
15 -2 15 -3z m54 -3 c-8 -8 -34 -10 -38 -2 -3 4 6 7 19 7 14 0 22 -2 19 -5z
m103 -8 c0 -7 -3 -11 -5 -8 -3 3 -15 -3 -26 -12 -21 -18 -21 -18 -3 3 9 11 15
23 12 26 -3 2 1 5 8 5 8 0 14 -6 14 -14z m554 0 c13 -16 12 -17 -3 -4 -17 13
-22 21 -14 21 2 0 10 -8 17 -17z m189 13 c0 -2 -8 -10 -17 -17 -16 -13 -17
-12 -4 4 13 16 21 21 21 13z m747 -14 c-10 -10 -14 -22 -10 -27 5 -4 2 -5 -5
-1 -11 6 -10 12 4 27 9 10 19 19 22 19 3 0 -2 -8 -11 -18z m297 10 c3 -5 -1
-9 -9 -9 -8 0 -12 4 -9 9 3 4 7 8 9 8 2 0 6 -4 9 -8z m-34 -7 c0 -2 -6 -8 -13
-14 -10 -8 -14 -7 -14 2 0 8 6 14 14 14 7 0 13 -1 13 -2z m115 -30 c1 0 9 6
18 13 10 9 17 10 22 2 4 -6 3 -10 -2 -9 -4 1 -10 0 -13 -1 -19 -7 -41 -7 -46
1 -3 5 -9 7 -13 5 -4 -3 -8 1 -8 9 0 12 4 12 20 -2 10 -10 20 -18 22 -18z m99
17 c3 -5 -1 -9 -9 -9 -8 0 -12 4 -9 9 3 4 7 8 9 8 2 0 6 -4 9 -8z m160 -13
c-3 -5 -10 -7 -15 -3 -5 3 -7 10 -3 15 3 5 10 7 15 3 5 -3 7 -10 3 -15z m160
13 c3 -5 -1 -9 -9 -9 -8 0 -12 4 -9 9 3 4 7 8 9 8 2 0 6 -4 9 -8z m61 -4 c5 4
5 1 1 -6 -6 -9 -11 -10 -20 -3 -7 6 -17 7 -21 3 -5 -4 -5 -1 -1 6 6 9 11 10
20 3 7 -6 17 -7 21 -3z m102 -2 c4 -4 4 -7 -2 -6 -5 1 -12 1 -15 0 -20 -7 -41
-7 -47 2 -3 6 -1 8 5 4 6 -3 13 -2 16 3 7 10 32 9 43 -3z m-2553 -7 c3 -3 -5
-5 -19 -5 -13 0 -22 3 -19 7 4 8 30 6 38 -2z m196 7 c0 -2 -6 -9 -14 -15 -11
-9 -16 -9 -22 0 -4 7 -3 9 4 5 6 -3 13 -2 17 4 6 10 15 14 15 6z m1620 -2 c0
-8 -19 -13 -24 -6 -3 5 1 9 9 9 8 0 15 -2 15 -3z m820 0 c0 -8 -19 -13 -24 -6
-3 5 1 9 9 9 8 0 15 -2 15 -3z m-2696 -13 c-8 -8 -34 -10 -38 -2 -3 4 6 7 19
7 14 0 22 -2 19 -5z m297 -8 c13 -16 12 -17 -3 -4 -17 13 -22 21 -14 21 2 0
10 -8 17 -17z m76 -6 c0 -8 -6 -14 -14 -14 -9 0 -10 4 -2 14 6 7 12 13 14 13
1 0 2 -6 2 -13z m312 -1 c9 -11 9 -16 -1 -22 -7 -4 -10 -4 -6 1 4 4 3 14 -3
22 -6 7 -9 13 -6 13 2 0 10 -6 16 -14z m345 -4 c3 -5 -1 -9 -9 -9 -8 0 -12 4
-9 9 3 4 7 8 9 8 2 0 6 -4 9 -8z m370 -1 c-8 -8 -34 -10 -38 -2 -3 4 6 7 19 7
14 0 22 -2 19 -5z m60 -3 c-4 -5 -9 -7 -12 -4 -3 3 -12 0 -21 -7 -14 -10 -14
-10 -4 4 13 16 46 23 37 7z m-1634 -14 c0 -8 -19 -13 -24 -6 -3 5 1 9 9 9 8 0
15 -2 15 -3z m1915 -33 c3 -5 2 -12 -3 -15 -5 -3 -9 1 -9 9 0 17 3 19 12 6z
m-1320 -23 c3 -3 -2 -11 -10 -18 -13 -11 -16 -11 -13 1 2 8 -3 13 -10 11 -8
-1 -11 2 -8 7 6 9 31 9 41 -1z m1041 0 c4 -7 4 -10 -1 -6 -4 4 -15 2 -24 -5
-14 -11 -14 -10 -2 6 16 20 18 21 27 5z m-1126 -34 c0 -8 -19 -13 -24 -6 -3 5
1 9 9 9 8 0 15 -2 15 -3z m364 -36 c-8 -12 -27 6 -30 28 -2 14 0 14 17 -1 10
-10 16 -22 13 -27z m511 -17 c3 -5 2 -12 -3 -15 -5 -3 -9 1 -9 9 0 17 3 19 12
6z m-500 -20 c3 -5 2 -12 -3 -15 -5 -3 -9 1 -9 9 0 17 3 19 12 6z m1500 -20
c3 -5 2 -12 -3 -15 -5 -3 -9 1 -9 9 0 17 3 19 12 6z m39 1 c3 -5 -1 -9 -9 -9
-8 0 -12 4 -9 9 3 4 7 8 9 8 2 0 6 -4 9 -8z m-1499 -19 c-2 -10 -4 -19 -4 -21
-1 -2 -6 0 -11 3 -8 5 -7 11 1 21 15 18 18 18 14 -3z m911 5 c3 -4 -1 -5 -10
-4 -8 1 -18 5 -22 8 -3 4 1 5 10 4 8 -1 18 -5 22 -8z m-762 -16 c3 -5 -1 -9
-9 -9 -8 0 -12 4 -9 9 3 4 7 8 9 8 2 0 6 -4 9 -8z m1161 -11 c-9 -8 -36 -10
-30 -2 2 4 11 8 20 8 8 0 13 -3 10 -6z m309 1 c3 -5 -1 -9 -9 -9 -8 0 -12 4
-9 9 3 4 7 8 9 8 2 0 6 -4 9 -8z m222 -4 c4 -7 4 -10 -1 -6 -4 4 -14 3 -21 -3
-8 -7 -14 -6 -20 2 -4 7 -3 9 4 5 6 -3 13 -2 17 4 8 13 12 13 21 -2z m-2752
-6 c3 -5 -1 -9 -9 -9 -8 0 -12 4 -9 9 3 4 7 8 9 8 2 0 6 -4 9 -8z m60 0 c3 -5
-1 -9 -9 -9 -8 0 -12 4 -9 9 3 4 7 8 9 8 2 0 6 -4 9 -8z m60 -1 c3 -5 -1 -14
-8 -20 -12 -10 -14 -9 -11 6 2 10 4 19 4 21 2 5 10 2 15 -7z m1076 3 c0 -8
-19 -13 -24 -6 -3 5 1 9 9 9 8 0 15 -2 15 -3z m1240 0 c0 -8 -19 -13 -24 -6
-3 5 1 9 9 9 8 0 15 -2 15 -3z m400 0 c0 -8 -19 -13 -24 -6 -3 5 1 9 9 9 8 0
15 -2 15 -3z m-2610 -8 c0 -2 -8 -10 -17 -17 -16 -13 -17 -12 -4 4 13 16 21
21 21 13z m1524 -4 c3 -5 -1 -9 -9 -9 -8 0 -12 4 -9 9 3 4 7 8 9 8 2 0 6 -4 9
-8z m-749 -11 c3 -5 2 -12 -3 -15 -5 -3 -9 1 -9 9 0 17 3 19 12 6z m684 -5 c9
-11 9 -16 -1 -22 -7 -4 -10 -4 -6 1 4 4 3 14 -3 22 -6 7 -9 13 -6 13 2 0 10
-6 16 -14z m442 -23 c17 -20 18 -23 3 -11 -16 14 -23 15 -34 5 -12 -10 -12 -9
-2 4 6 9 9 19 5 22 -3 4 -4 7 -1 7 2 0 15 -12 29 -27z m323 6 c-3 -5 -10 -7
-15 -3 -5 3 -7 10 -3 15 3 5 10 7 15 3 5 -3 7 -10 3 -15z m122 9 c3 -4 -1 -5
-10 -4 -8 1 -18 5 -22 8 -3 4 1 5 10 4 8 -1 18 -5 22 -8z m-2432 -19 c-3 -5
-10 -7 -15 -3 -5 3 -7 10 -3 15 3 5 10 7 15 3 5 -3 7 -10 3 -15z m2062 -5 c1
-9 0 -13 -4 -10 -3 4 -7 14 -8 22 -1 9 0 13 4 10 3 -4 7 -14 8 -22z m474 20
c0 -8 -19 -13 -24 -6 -3 5 1 9 9 9 8 0 15 -2 15 -3z m100 0 c0 -8 -19 -13 -24
-6 -3 5 1 9 9 9 8 0 15 -2 15 -3z m-2770 -9 c0 -2 -6 -8 -13 -14 -10 -8 -14
-7 -14 2 0 8 6 14 14 14 7 0 13 -1 13 -2z m605 -7 c5 4 5 1 1 -6 -6 -10 -11
-10 -22 -1 -8 6 -14 14 -14 16 0 3 6 0 13 -6 8 -6 18 -7 22 -3z m754 -12 c9
-10 8 -16 -4 -26 -9 -8 -15 -9 -14 -4 4 23 -3 26 -23 8 -21 -17 -21 -16 1 9
29 32 26 31 40 13z m141 -2 c0 -8 -19 -13 -24 -6 -3 5 1 9 9 9 8 0 15 -2 15
-3z m-1310 -9 c0 -2 -6 -8 -13 -14 -10 -8 -14 -7 -14 2 0 8 6 14 14 14 7 0 13
-1 13 -2z m980 1 c0 -2 -8 -10 -17 -17 -16 -13 -17 -12 -4 4 13 16 21 21 21
13z m580 -1 c0 -2 -6 -8 -13 -14 -10 -8 -14 -7 -14 2 0 8 6 14 14 14 7 0 13
-1 13 -2z m320 1 c0 -2 -6 -9 -14 -15 -11 -9 -16 -9 -22 0 -4 7 -3 9 4 5 6 -3
13 -2 17 4 6 10 15 14 15 6z m-2266 -14 c3 -5 -1 -9 -9 -9 -8 0 -12 4 -9 9 3
4 7 8 9 8 2 0 6 -4 9 -8z m282 -4 c5 4 5 3 1 -3 -5 -5 -10 -8 -11 -5 -2 3 -11
-2 -22 -10 -17 -14 -18 -13 -7 1 7 9 9 20 5 25 -4 4 0 3 9 -4 9 -6 20 -8 25
-4z m274 8 c0 -2 -8 -10 -17 -17 -16 -13 -17 -12 -4 4 13 16 21 21 21 13z
m255 -5 c-9 -8 -36 -10 -30 -2 2 4 11 8 20 8 8 0 13 -3 10 -6z m590 -1 c4 -6
1 -9 -7 -8 -7 2 -12 -4 -10 -12 2 -8 0 -12 -4 -8 -4 4 -14 2 -23 -4 -9 -7 -5
0 8 15 28 31 28 31 36 17z m787 -2 c-9 -9 -9 -15 1 -27 11 -14 10 -14 -6 -2
-13 10 -15 17 -6 27 6 8 14 14 17 14 3 0 1 -5 -6 -12z m837 -2 c9 -11 9 -16
-1 -22 -7 -4 -10 -4 -6 1 4 4 3 14 -3 22 -6 7 -9 13 -6 13 2 0 10 -6 16 -14z
m-730 -9 c8 -10 7 -14 -2 -14 -8 0 -14 6 -14 14 0 7 1 13 2 13 2 0 8 -6 14
-13z m328 -2 c0 -8 -4 -12 -9 -9 -5 3 -6 10 -3 15 9 13 12 11 12 -6z m208 6
c3 -5 2 -12 -3 -15 -5 -3 -9 1 -9 9 0 17 3 19 12 6z m-1939 -45 c0 -14 -3 -23
-7 -20 -6 3 -6 22 0 42 3 10 7 -2 7 -22z m521 10 c0 -15 -21 -16 -34 -1 -4 4
-3 5 4 1 6 -3 14 -2 18 4 8 14 12 13 12 -4z m1137 -4 c3 -5 -1 -9 -9 -9 -8 0
-12 4 -9 9 3 4 7 8 9 8 2 0 6 -4 9 -8z m-267 -28 c0 -10 -10 -11 -35 -5 -2 1
-1 5 2 9 8 13 33 10 33 -4z m49 4 c4 -7 4 -10 -1 -6 -4 4 -15 2 -24 -5 -14
-11 -14 -10 -2 6 16 20 18 21 27 5z m-916 -2 c0 -2 -8 -10 -17 -17 -16 -13
-17 -12 -4 4 13 16 21 21 21 13z m91 -13 c13 -16 12 -17 -3 -4 -10 7 -18 15
-18 17 0 8 8 3 21 -13z m-457 -14 c-3 -5 -10 -7 -15 -3 -5 3 -7 10 -3 15 3 5
10 7 15 3 5 -3 7 -10 3 -15z m881 12 c3 -5 2 -12 -3 -15 -5 -3 -9 1 -9 9 0 17
3 19 12 6z m972 -6 c0 -8 -4 -12 -9 -9 -5 3 -6 10 -3 15 9 13 12 11 12 -6z
m-2342 -4 c3 -5 2 -12 -3 -15 -5 -3 -9 1 -9 9 0 17 3 19 12 6z m252 -8 c0 -8
-4 -10 -12 -3 -7 5 -16 6 -20 2 -5 -4 -5 -2 -2 4 9 15 34 13 34 -3z m-172 -10
c-2 -10 -4 -20 -5 -23 -1 -3 -2 -9 -1 -13 1 -5 -3 -6 -9 -2 -6 3 -7 12 -3 18
4 7 8 15 9 20 3 14 4 17 8 17 2 0 3 -8 1 -17z m439 -1 c3 -5 -1 -9 -9 -9 -8 0
-12 4 -9 9 3 4 7 8 9 8 2 0 6 -4 9 -8z m-1054 -8 c0 -8 -19 -13 -24 -6 -3 5 1
9 9 9 8 0 15 -2 15 -3z m427 -19 c0 -8 -4 -12 -9 -9 -5 3 -6 10 -3 15 9 13 12
11 12 -6z m1518 -4 c3 -5 2 -12 -3 -15 -5 -3 -9 1 -9 9 0 17 3 19 12 6z
m-1709 -27 c1 -9 0 -13 -4 -10 -3 4 -7 14 -8 22 -1 9 0 13 4 10 3 -4 7 -14 8
-22z m2014 0 c8 -8 9 -14 4 -13 -20 4 -26 -2 -15 -15 9 -11 9 -16 0 -22 -7 -4
-9 -3 -5 4 3 6 2 14 -4 17 -8 5 -8 11 -1 19 6 7 8 16 4 19 -3 4 -4 7 -1 7 3 0
11 -7 18 -16z m-826 -12 c3 -5 -1 -9 -9 -9 -8 0 -12 4 -9 9 3 4 7 8 9 8 2 0 6
-4 9 -8z m1093 -7 c0 -8 -4 -12 -9 -9 -5 3 -6 10 -3 15 9 13 12 11 12 -6z
m-2616 -8 c-6 -8 -9 -17 -6 -20 3 -4 2 -5 -2 -2 -3 3 -13 -1 -22 -7 -9 -7 -5
0 8 15 25 27 43 39 22 14z m966 -2 c0 -6 -6 -12 -12 -12 -6 0 -12 6 -12 12 0
6 6 12 12 12 6 0 12 -6 12 -12z m1030 -10 c0 -8 -4 -12 -9 -9 -5 3 -6 10 -3
15 9 13 12 11 12 -6z m48 6 c3 -5 2 -12 -3 -15 -5 -3 -9 1 -9 9 0 17 3 19 12
6z m-1675 -7 c0 -8 -19 -13 -24 -6 -3 5 1 9 9 9 8 0 15 -2 15 -3z m336 -30 c1
-9 0 -13 -4 -10 -3 4 -7 14 -8 22 -1 9 0 13 4 10 3 -4 7 -14 8 -22z m221 1 c0
-8 -4 -12 -9 -9 -5 3 -6 10 -3 15 9 13 12 11 12 -6z m1568 6 c3 -5 2 -12 -3
-15 -5 -3 -9 1 -9 9 0 17 3 19 12 6z m-2238 -18 c0 -9 -4 -10 -14 -2 -7 6 -13
12 -13 14 0 1 6 2 13 2 8 0 14 -6 14 -14z m1740 2 c0 -8 -4 -12 -9 -9 -5 3 -6
10 -3 15 9 13 12 11 12 -6z m340 0 c0 -8 -4 -12 -9 -9 -5 3 -6 10 -3 15 9 13
12 11 12 -6z m-1710 -10 c0 -8 -4 -12 -9 -9 -5 3 -6 10 -3 15 9 13 12 11 12
-6z m2229 -11 c1 -9 0 -13 -4 -10 -3 4 -7 14 -8 22 -1 9 0 13 4 10 3 -4 7 -14
8 -22z m-1731 7 c3 -5 2 -12 -3 -15 -5 -3 -9 1 -9 9 0 17 3 19 12 6z m1312 -6
c0 -8 -4 -12 -9 -9 -5 3 -6 10 -3 15 9 13 12 11 12 -6z m347 7 c3 -5 -1 -9 -9
-9 -8 0 -12 4 -9 9 3 4 7 8 9 8 2 0 6 -4 9 -8z m-837 -17 c0 -8 -4 -12 -9 -9
-5 3 -6 10 -3 15 9 13 12 11 12 -6z m-1947 1 c0 -2 -8 -10 -17 -17 -16 -13
-17 -12 -4 4 13 16 21 21 21 13z m2002 -19 c-5 -7 -8 -20 -7 -30 2 -9 0 -15
-5 -12 -7 4 -7 27 0 45 1 3 2 9 1 13 -1 5 3 6 9 2 7 -4 8 -11 2 -18z m-1041 0
c-7 -7 -7 -15 1 -24 9 -11 8 -13 -2 -11 -8 2 -14 -2 -15 -9 0 -6 -3 -14 -7
-18 -8 -9 -5 16 5 32 4 6 3 14 -3 18 -14 9 -5 22 15 22 11 0 12 -4 6 -10z
m-330 -31 c-6 -7 -7 -17 -3 -21 4 -5 1 -5 -6 -1 -9 6 -10 11 -3 20 6 7 7 17 3
21 -4 5 -1 5 6 1 9 -6 10 -11 3 -20z m2064 15 c3 -5 2 -12 -3 -15 -5 -3 -9 1
-9 9 0 17 3 19 12 6z m-1513 -16 c2 3 5 -2 5 -10 0 -19 0 -19 -23 7 -12 14
-13 18 -3 10 9 -6 18 -10 21 -7z m308 1 c0 -2 -8 -10 -17 -17 -16 -13 -17 -12
-4 4 13 16 21 21 21 13z m114 -14 c3 -5 -1 -9 -9 -9 -8 0 -12 4 -9 9 3 4 7 8
9 8 2 0 6 -4 9 -8z m440 -13 c-3 -5 -10 -7 -15 -3 -5 3 -7 10 -3 15 3 5 10 7
15 3 5 -3 7 -10 3 -15z m307 4 c13 -16 12 -17 -3 -4 -10 7 -18 15 -18 17 0 8
8 3 21 -13z m-1365 -26 c1 -8 -4 -14 -10 -14 -7 0 -12 11 -12 24 0 24 18 16
22 -10z m2004 29 c0 -2 -8 -10 -17 -17 -16 -13 -17 -12 -4 4 13 16 21 21 21
13z m-550 -12 c0 -8 -19 -13 -24 -6 -3 5 1 9 9 9 8 0 15 -2 15 -3z m-1230 -10
c0 -8 -19 -13 -24 -6 -3 5 1 9 9 9 8 0 15 -2 15 -3z m477 -9 c0 -8 -4 -12 -9
-9 -5 3 -6 10 -3 15 9 13 12 11 12 -6z m-570 -10 c0 -8 -4 -12 -9 -9 -5 3 -6
10 -3 15 9 13 12 11 12 -6z m928 6 c3 -5 2 -12 -3 -15 -5 -3 -9 1 -9 9 0 17 3
19 12 6z m252 -6 c0 -8 -4 -12 -9 -9 -5 3 -6 10 -3 15 9 13 12 11 12 -6z
m-1966 -19 c-6 -7 -7 -17 -3 -21 4 -5 1 -5 -6 -1 -9 6 -10 11 -3 20 6 7 7 17
3 21 -4 5 -1 5 6 1 9 -6 10 -11 3 -20z m304 15 c3 -5 2 -12 -3 -15 -5 -3 -9 1
-9 9 0 17 3 19 12 6z m1701 -25 c0 -14 -3 -23 -7 -20 -6 3 -6 22 0 42 3 10 7
-2 7 -22z m-1369 -3 c0 -7 -3 -11 -5 -8 -3 3 -11 0 -18 -6 -9 -8 -12 -6 -9 8
4 22 2 20 18 20 8 0 14 -6 14 -14z m1038 -2 c3 -5 2 -12 -3 -15 -5 -3 -9 1 -9
9 0 17 3 19 12 6z m-1615 -5 c0 -2 -8 -10 -17 -17 -16 -13 -17 -12 -4 4 13 16
21 21 21 13z m2240 -2 c0 -8 -19 -13 -24 -6 -3 5 1 9 9 9 8 0 15 -2 15 -3z
m-2041 -17 c8 -10 7 -14 -2 -14 -8 0 -14 6 -14 14 0 7 1 13 2 13 2 0 8 -6 14
-13z m46 -30 c0 -12 5 -22 12 -22 6 0 14 -2 17 -5 3 -4 -5 -6 -17 -6 -19 0
-23 5 -23 33 0 17 3 30 6 27 3 -3 5 -15 5 -27z m341 8 c1 -8 -1 -17 -5 -19 -4
-3 -7 6 -7 19 0 25 8 25 12 0z m355 -2 c13 -16 12 -17 -3 -4 -10 7 -18 15 -18
17 0 8 8 3 21 -13z m169 11 c0 -8 -19 -13 -24 -6 -3 5 1 9 9 9 8 0 15 -2 15
-3z m537 -9 c0 -8 -4 -12 -9 -9 -5 3 -6 10 -3 15 9 13 12 11 12 -6z m580 2 c0
-8 -6 -14 -14 -14 -9 0 -10 4 -2 14 6 7 12 13 14 13 1 0 2 -6 2 -13z m-2442
-6 c3 -5 2 -12 -3 -15 -5 -3 -9 1 -9 9 0 17 3 19 12 6z m2319 -19 c3 -5 -1 -9
-9 -9 -8 0 -12 4 -9 9 3 4 7 8 9 8 2 0 6 -4 9 -8z m200 -13 c-3 -5 -10 -7 -15
-3 -5 3 -7 10 -3 15 3 5 10 7 15 3 5 -3 7 -10 3 -15z m160 13 c3 -5 -1 -9 -9
-9 -8 0 -12 4 -9 9 3 4 7 8 9 8 2 0 6 -4 9 -8z m80 0 c3 -5 -1 -9 -9 -9 -8 0
-12 4 -9 9 3 4 7 8 9 8 2 0 6 -4 9 -8z m224 -1 c2 -1 0 -6 -3 -11 -4 -7 -12
-7 -18 -2 -10 7 -32 9 -39 2 -9 -7 -39 -7 -43 0 -3 5 3 7 15 5 11 -2 22 0 24
4 4 6 47 8 64 2z m-3134 -9 c3 -5 -1 -9 -9 -9 -8 0 -12 4 -9 9 3 4 7 8 9 8 2
0 6 -4 9 -8z m101 -10 c-10 -11 -35 -10 -42 0 -3 6 -1 8 5 4 6 -3 13 -2 17 4
4 6 11 8 16 4 6 -3 8 -9 4 -12z m282 3 c4 -4 3 -5 -4 -1 -6 3 -14 2 -18 -4 -4
-6 -11 -8 -16 -4 -5 3 -7 9 -4 14 6 10 31 7 42 -5z m57 7 c3 -5 -1 -9 -9 -9
-8 0 -12 4 -9 9 3 4 7 8 9 8 2 0 6 -4 9 -8z m40 0 c3 -5 -1 -9 -9 -9 -8 0 -12
4 -9 9 3 4 7 8 9 8 2 0 6 -4 9 -8z m82 -1 c8 7 14 6 20 -3 4 -7 4 -10 -1 -6
-4 4 -14 3 -21 -3 -8 -7 -14 -7 -19 1 -3 6 -11 7 -17 4 -7 -5 -8 -2 -3 5 5 9
10 10 18 2 7 -7 14 -7 23 0z m1420 -16 c1 -8 -3 -18 -8 -22 -6 -3 -8 -1 -4 5
3 6 2 13 -4 17 -6 4 -8 11 -4 16 7 12 17 4 20 -16z m389 17 c-3 -3 0 -11 6
-19 17 -20 5 -16 -14 5 -15 16 -15 19 -2 19 8 0 13 -3 10 -5z m345 2 c0 -8
-19 -13 -24 -6 -3 5 1 9 9 9 8 0 15 -2 15 -3z m297 -11 c0 -9 -4 -10 -14 -2
-7 6 -13 12 -13 14 0 1 6 2 13 2 8 0 14 -6 14 -14z m-2847 2 c0 -2 -6 -8 -13
-14 -10 -8 -14 -7 -14 2 0 8 6 14 14 14 7 0 13 -1 13 -2z m37 -9 c-1 -6 4 -10
11 -8 14 2 16 -4 3 -12 -4 -3 -16 3 -25 13 -13 14 -14 18 -2 18 8 0 14 -5 13
-11z m1364 -13 c13 -16 12 -17 -3 -4 -17 13 -22 21 -14 21 2 0 10 -8 17 -17z
m454 8 c3 -5 2 -12 -3 -15 -5 -3 -9 1 -9 9 0 17 3 19 12 6z m-1078 -36 c0 -8
-4 -12 -9 -9 -5 3 -6 10 -3 15 9 13 12 11 12 -6z m1038 -4 c3 -5 2 -12 -3 -15
-5 -3 -9 1 -9 9 0 17 3 19 12 6z m-640 -20 c3 -5 2 -12 -3 -15 -5 -3 -9 1 -9
9 0 17 3 19 12 6z m-370 -10 c3 -5 2 -12 -3 -15 -5 -3 -9 1 -9 9 0 17 3 19 12
6z m909 -9 c3 -5 -1 -9 -9 -9 -8 0 -12 4 -9 9 3 4 7 8 9 8 2 0 6 -4 9 -8z
m-114 -28 c0 -8 -19 -13 -24 -6 -3 5 1 9 9 9 8 0 15 -2 15 -3z m215 -13 c3 -5
2 -12 -3 -15 -5 -3 -9 1 -9 9 0 17 3 19 12 6z m-709 -13 c3 -4 -1 -5 -10 -4
-8 1 -18 5 -22 8 -3 4 1 5 10 4 8 -1 18 -5 22 -8z m-152 -6 c3 -5 -1 -9 -9 -9
-8 0 -12 4 -9 9 3 4 7 8 9 8 2 0 6 -4 9 -8z m199 -14 c-4 -7 -8 -16 -8 -20 0
-3 -3 -9 -7 -12 -5 -3 -6 -3 -3 1 3 3 -1 13 -8 21 -8 11 -8 14 0 9 6 -4 14 -3
18 3 3 5 8 10 11 10 3 0 2 -6 -3 -12z m691 -29 c-9 -10 -21 -16 -26 -13 -11 7
-1 19 15 19 7 1 11 7 9 14 -1 7 2 9 8 6 8 -5 6 -13 -6 -26z m-275 8 c8 -10 7
-14 -2 -14 -8 0 -14 6 -14 14 0 7 1 13 2 13 2 0 8 -6 14 -13z m-884 -16 c3 -5
2 -12 -3 -15 -5 -3 -9 1 -9 9 0 17 3 19 12 6z m66 -8 c13 -16 12 -17 -3 -4
-10 7 -18 15 -18 17 0 8 8 3 21 -13z m696 -8 c0 -8 -4 -12 -9 -9 -5 3 -6 10
-3 15 9 13 12 11 12 -6z m48 6 c3 -5 2 -12 -3 -15 -5 -3 -9 1 -9 9 0 17 3 19
12 6z m401 -3 c5 4 5 3 1 -2 -12 -15 -34 -15 -34 0 0 9 4 11 12 4 7 -5 16 -6
21 -2z m-730 -10 c3 -4 -1 -5 -10 -4 -8 1 -18 5 -22 8 -3 4 1 5 10 4 8 -1 18
-5 22 -8z m539 3 c3 -5 2 -12 -3 -15 -5 -3 -9 1 -9 9 0 17 3 19 12 6z m679 1
c3 -5 -1 -9 -9 -9 -8 0 -12 4 -9 9 3 4 7 8 9 8 2 0 6 -4 9 -8z m561 -1 c3 -5
2 -12 -3 -15 -5 -3 -9 1 -9 9 0 17 3 19 12 6z m-3159 -25 c0 -14 -3 -23 -7
-20 -6 3 -6 22 0 42 3 10 7 -2 7 -22z m160 0 c0 -14 -3 -23 -7 -20 -6 3 -6 22
0 42 3 10 7 -2 7 -22z m2744 18 c0 -8 -19 -13 -24 -6 -3 5 1 9 9 9 8 0 15 -2
15 -3z m100 1 c0 -2 -6 -8 -13 -14 -10 -8 -14 -7 -14 2 0 8 6 14 14 14 7 0 13
-1 13 -2z m40 -1 c0 -8 -19 -13 -24 -6 -3 5 1 9 9 9 8 0 15 -2 15 -3z m-1833
-19 c0 -8 -4 -12 -9 -9 -5 3 -6 10 -3 15 9 13 12 11 12 -6z m173 -1 c0 -8 -19
-13 -24 -6 -3 5 1 9 9 9 8 0 15 -2 15 -3z m330 -10 c0 -8 -19 -13 -24 -6 -3 5
1 9 9 9 8 0 15 -2 15 -3z m-745 -13 c3 -5 2 -12 -3 -15 -5 -3 -9 1 -9 9 0 17
3 19 12 6z m460 0 c3 -5 2 -12 -3 -15 -5 -3 -9 1 -9 9 0 17 3 19 12 6z m715 5
c0 -2 -8 -10 -17 -17 -16 -13 -17 -12 -4 4 13 16 21 21 21 13z m1055 -15 c3
-5 2 -12 -3 -15 -5 -3 -9 1 -9 9 0 17 3 19 12 6z m-2448 -26 c0 -8 -4 -12 -9
-9 -5 3 -6 10 -3 15 9 13 12 11 12 -6z m703 11 c0 -2 -6 -9 -14 -15 -11 -9
-16 -9 -22 0 -4 7 -3 9 4 5 6 -3 13 -2 17 4 6 10 15 14 15 6z m1558 -16 c9 7
9 7 2 -2 -5 -6 -17 -13 -26 -14 -9 -1 -13 0 -10 3 3 4 0 13 -6 22 -10 12 -8
12 8 -1 14 -12 24 -15 32 -8z m-1628 6 c0 -2 -8 -10 -17 -17 -16 -13 -17 -12
-4 4 13 16 21 21 21 13z m780 -2 c0 -8 -19 -13 -24 -6 -3 5 1 9 9 9 8 0 15 -2
15 -3z m676 -16 c12 -14 13 -18 3 -10 -9 6 -18 10 -21 7 -2 -3 -5 2 -5 10 0
19 0 19 23 -7z m106 7 c19 0 14 -11 -6 -11 -12 0 -23 6 -23 13 0 6 5 9 11 5 6
-4 14 -7 18 -7z m-241 -12 c12 -16 12 -17 -2 -6 -9 7 -20 9 -24 5 -5 -4 -5 -1
-1 6 9 16 11 15 27 -5z m373 -4 c-3 -5 -10 -7 -15 -3 -5 3 -7 10 -3 15 3 5 10
7 15 3 5 -3 7 -10 3 -15z m40 13 c3 -5 -1 -9 -9 -9 -8 0 -12 4 -9 9 3 4 7 8 9
8 2 0 6 -4 9 -8z m-2429 -11 c3 -5 2 -12 -3 -15 -5 -3 -9 1 -9 9 0 17 3 19 12
6z m115 5 c0 -2 -6 -9 -14 -15 -11 -9 -16 -9 -22 0 -4 7 -3 9 4 5 6 -3 13 -2
17 4 6 10 15 14 15 6z m704 -4 c3 -5 -1 -9 -9 -9 -8 0 -12 4 -9 9 3 4 7 8 9 8
2 0 6 -4 9 -8z m1247 -9 c12 -16 12 -17 -2 -6 -9 7 -20 9 -24 5 -5 -4 -5 -1
-1 6 9 16 11 15 27 -5z m-2581 1 c0 -8 -19 -13 -24 -6 -3 5 1 9 9 9 8 0 15 -2
15 -3z m60 0 c0 -8 -19 -13 -24 -6 -3 5 1 9 9 9 8 0 15 -2 15 -3z m180 1 c0
-1 -9 -10 -19 -19 -19 -17 -19 -17 -16 1 2 10 4 18 4 19 2 2 31 1 31 -1z m287
-32 c-4 -3 -1 -13 6 -22 11 -14 10 -14 -5 -2 -16 12 -16 31 -1 31 4 0 3 -3 0
-7z m628 -5 c5 4 5 1 1 -6 -6 -10 -11 -10 -22 -1 -8 6 -14 14 -14 16 0 3 6 0
13 -6 8 -6 18 -7 22 -3z m131 -24 c-3 -18 -13 -27 -32 -30 -9 -1 -13 1 -9 4 4
4 11 8 16 8 20 3 21 5 10 17 -8 10 -7 14 3 14 8 0 13 -6 12 -13z m-116 -9 c0
-2 -6 -8 -13 -14 -10 -8 -14 -7 -14 2 0 8 6 14 14 14 7 0 13 -1 13 -2z m1236
-39 c0 -14 -3 -23 -7 -20 -6 3 -6 22 0 42 3 10 7 -2 7 -22z m174 10 c0 -2 -8
-10 -17 -17 -16 -13 -17 -12 -4 4 13 16 21 21 21 13z m360 -2 c0 -8 -19 -13
-24 -6 -3 5 1 9 9 9 8 0 15 -2 15 -3z m-2019 -61 c7 -10 9 -15 5 -11 -5 4 -16
2 -25 -5 -14 -10 -14 -10 -4 4 7 9 10 19 6 22 -3 4 -4 7 -1 7 3 0 12 -8 19
-17z m120 0 c13 -16 12 -17 -3 -4 -10 7 -18 15 -18 17 0 8 8 3 21 -13z m1054
-15 c5 4 5 1 1 -6 -6 -10 -11 -10 -22 -1 -8 6 -14 14 -14 16 0 3 6 0 13 -6 8
-6 18 -7 22 -3z m-1998 -13 c0 -8 -4 -12 -9 -9 -5 3 -6 10 -3 15 9 13 12 11
12 -6z m714 -2 c12 -16 12 -17 -2 -6 -9 7 -20 9 -24 5 -5 -4 -5 -1 -1 6 9 16
11 15 27 -5z m186 10 c-4 -3 -2 -11 3 -18 7 -8 5 -12 -4 -12 -8 0 -12 7 -11
16 5 22 4 21 12 21 3 0 3 -3 0 -7z m1410 -18 c0 -8 -4 -12 -9 -9 -5 3 -6 10
-3 15 9 13 12 11 12 -6z m-2396 -12 c12 -16 12 -17 -2 -6 -9 7 -20 9 -24 5 -5
-4 -5 -1 -1 6 9 16 11 15 27 -5z m738 4 c8 -10 7 -14 -2 -14 -8 0 -14 6 -14
14 0 7 1 13 2 13 2 0 8 -6 14 -13z m855 5 c3 -5 -1 -9 -9 -9 -8 0 -12 4 -9 9
3 4 7 8 9 8 2 0 6 -4 9 -8z m276 3 c0 -1 -11 -11 -23 -24 -23 -21 -25 -21 -38
-4 -12 16 -12 17 2 5 13 -10 18 -10 28 1 6 8 9 16 6 19 -3 2 2 5 10 5 8 0 15
-1 15 -2z m765 -4 c3 -5 2 -12 -3 -15 -5 -3 -9 1 -9 9 0 17 3 19 12 6z m-2566
-14 c8 -10 7 -14 -2 -14 -8 0 -14 6 -14 14 0 7 1 13 2 13 2 0 8 -6 14 -13z
m608 -2 c0 -8 -4 -12 -9 -9 -5 3 -6 10 -3 15 9 13 12 11 12 -6z m-827 -1 c0
-8 -19 -13 -24 -6 -3 5 1 9 9 9 8 0 15 -2 15 -3z m1487 -19 c0 -8 -4 -12 -9
-9 -5 3 -6 10 -3 15 9 13 12 11 12 -6z m267 6 c3 -5 -1 -14 -8 -20 -12 -10
-14 -9 -11 6 2 10 4 19 4 21 2 5 10 2 15 -7z m456 5 c0 -2 -6 -9 -14 -15 -11
-9 -16 -9 -22 0 -4 7 -3 9 4 5 6 -3 13 -2 17 4 6 10 15 14 15 6z m336 -19 c0
-13 -6 -24 -13 -24 -6 0 -9 5 -5 11 4 6 7 14 8 19 5 26 10 23 10 -6z m-2101 4
c3 -5 2 -12 -3 -15 -5 -3 -9 1 -9 9 0 17 3 19 12 6z m281 -16 c1 -8 -1 -17 -5
-19 -4 -3 -7 6 -7 19 0 25 8 25 12 0z m691 8 c0 -9 -4 -10 -14 -2 -7 6 -13 12
-13 14 0 1 6 2 13 2 8 0 14 -6 14 -14z m1594 0 c13 -16 12 -17 -3 -4 -17 13
-22 21 -14 21 2 0 10 -8 17 -17z m-2950 -10 c13 -16 12 -17 -3 -4 -10 7 -18
15 -18 17 0 8 8 3 21 -13z m910 -7 c-6 -7 -9 -15 -6 -18 3 -3 -5 -13 -17 -24
-18 -15 -20 -16 -9 -1 7 9 10 17 6 17 -5 0 -1 8 8 18 10 10 14 22 10 27 -5 4
-2 5 5 1 9 -6 10 -11 3 -20z m-821 0 c0 -2 -6 -9 -14 -15 -11 -9 -16 -9 -22 0
-4 7 -3 9 4 5 6 -3 13 -2 17 4 6 10 15 14 15 6z m-195 -15 c-9 -8 -36 -10 -30
-2 2 4 11 8 20 8 8 0 13 -3 10 -6z m1102 -8 c0 -9 -4 -10 -14 -2 -7 6 -13 12
-13 14 0 1 6 2 13 2 8 0 14 -6 14 -14z m1952 3 c9 -11 9 -16 -1 -22 -7 -4 -10
-4 -6 1 4 4 3 14 -3 22 -6 7 -9 13 -6 13 2 0 10 -6 16 -14z m-2802 -9 c0 -8
-6 -14 -14 -14 -9 0 -10 4 -2 14 6 7 12 13 14 13 1 0 2 -6 2 -13z m2344 -11
c-6 -7 -7 -17 -3 -21 4 -5 1 -5 -6 -1 -9 6 -10 11 -3 20 6 7 7 17 3 21 -4 5
-1 5 6 1 9 -6 10 -11 3 -20z m399 20 c0 -2 -8 -10 -17 -17 -16 -13 -17 -12 -4
4 13 16 21 21 21 13z m-2225 -15 c3 -5 2 -12 -3 -15 -5 -3 -9 1 -9 9 0 17 3
19 12 6z m2412 -6 c0 -8 -4 -12 -9 -9 -5 3 -6 10 -3 15 9 13 12 11 12 -6z
m-2700 -20 c0 -8 -4 -12 -9 -9 -5 3 -6 10 -3 15 9 13 12 11 12 -6z m319 0 c-1
-8 -5 -17 -8 -21 -5 -4 -4 16 1 34 3 9 9 -1 7 -13z m169 -14 c3 -5 2 -12 -3
-15 -5 -3 -9 1 -9 9 0 17 3 19 12 6z m219 -2 c3 -3 -5 -5 -19 -5 -13 0 -22 3
-19 7 4 8 30 6 38 -2z m956 5 c0 -8 -19 -13 -24 -6 -3 5 1 9 9 9 8 0 15 -2 15
-3z m-1893 -19 c0 -8 -4 -12 -9 -9 -5 3 -6 10 -3 15 9 13 12 11 12 -6z m230
-10 c0 -8 -4 -12 -9 -9 -5 3 -6 10 -3 15 9 13 12 11 12 -6z m2350 -10 c0 -8
-4 -12 -9 -9 -5 3 -6 10 -3 15 9 13 12 11 12 -6z m-2382 -4 c3 -5 2 -12 -3
-15 -5 -3 -9 1 -9 9 0 17 3 19 12 6z m312 -6 c0 -8 -4 -12 -9 -9 -5 3 -6 10
-3 15 9 13 12 11 12 -6z m1509 -11 c1 -9 0 -13 -4 -10 -3 4 -7 14 -8 22 -1 9
0 13 4 10 3 -4 7 -14 8 -22z m-919 1 c0 -8 -4 -12 -9 -9 -5 3 -6 10 -3 15 9
13 12 11 12 -6z m272 2 c8 -10 7 -14 -2 -14 -8 0 -14 6 -14 14 0 7 1 13 2 13
2 0 8 -6 14 -13z m616 4 c3 -5 2 -12 -3 -15 -5 -3 -9 1 -9 9 0 17 3 19 12 6z
m359 1 c3 -5 -1 -9 -9 -9 -8 0 -12 4 -9 9 3 4 7 8 9 8 2 0 6 -4 9 -8z m-1428
-14 c4 -7 4 -10 -1 -6 -4 4 -15 2 -24 -5 -14 -11 -14 -10 -2 6 16 20 18 21 27
5z m220 -13 c1 -8 -1 -17 -5 -19 -4 -3 -7 6 -7 19 0 25 8 25 12 0z m1674 19
c0 -8 -19 -13 -24 -6 -3 5 1 9 9 9 8 0 15 -2 15 -3z m-2514 -26 c10 -13 15
-20 10 -16 -5 4 -14 4 -21 -2 -8 -6 -11 -2 -11 15 0 14 1 25 1 25 1 0 10 -10
21 -22z m2015 5 c13 -16 12 -17 -3 -4 -17 13 -22 21 -14 21 2 0 10 -8 17 -17z
m415 -9 c1 -9 0 -13 -4 -10 -3 4 -7 14 -8 22 -1 9 0 13 4 10 3 -4 7 -14 8 -22z
m-2179 -1 c0 -9 -4 -10 -14 -2 -7 6 -13 12 -13 14 0 1 6 2 13 2 8 0 14 -6 14
-14z m2340 4 c0 -8 -6 -14 -14 -14 -9 0 -10 4 -2 14 6 7 12 13 14 13 1 0 2 -6
2 -13z m-3142 -6 c3 -5 2 -12 -3 -15 -5 -3 -9 1 -9 9 0 17 3 19 12 6z m728
-11 c10 -12 9 -12 -4 -2 -9 6 -18 9 -21 6 -3 -3 -9 -1 -12 4 -9 15 22 8 37 -8z
m931 11 c3 -5 -2 -15 -12 -22 -15 -12 -16 -12 -5 2 7 9 10 19 6 22 -3 4 -4 7
0 7 3 0 8 -4 11 -9z m573 -6 c0 -8 -4 -12 -9 -9 -5 3 -6 10 -3 15 9 13 12 11
12 -6z m-1922 -4 c3 -5 2 -12 -3 -15 -5 -3 -9 1 -9 9 0 17 3 19 12 6z m2519 1
c3 -5 -1 -9 -9 -9 -8 0 -12 4 -9 9 3 4 7 8 9 8 2 0 6 -4 9 -8z m41 -1 c3 -5 2
-12 -3 -15 -5 -3 -9 1 -9 9 0 17 3 19 12 6z m219 1 c3 -5 -1 -9 -9 -9 -8 0
-12 4 -9 9 3 4 7 8 9 8 2 0 6 -4 9 -8z m-184 -16 c0 -2 -8 -10 -17 -17 -16
-13 -17 -12 -4 4 13 16 21 21 21 13z m-733 -21 c0 -8 -4 -12 -9 -9 -5 3 -6 10
-3 15 9 13 12 11 12 -6z m77 -3 c3 -5 -1 -9 -9 -9 -8 0 -12 4 -9 9 3 4 7 8 9
8 2 0 6 -4 9 -8z m-2194 -5 c0 -2 -9 -12 -19 -21 -14 -13 -21 -14 -27 -5 -4 7
-3 10 3 6 6 -4 16 0 23 8 12 14 20 19 20 12z m2160 -1 c0 -2 -8 -10 -17 -17
-16 -13 -17 -12 -4 4 13 16 21 21 21 13z m365 -5 c3 -5 2 -12 -3 -15 -5 -3 -9
1 -9 9 0 17 3 19 12 6z m-1691 -9 c3 -5 -1 -9 -9 -9 -8 0 -12 4 -9 9 3 4 7 8
9 8 2 0 6 -4 9 -8z m281 -1 c3 -5 2 -12 -3 -15 -5 -3 -9 1 -9 9 0 17 3 19 12
6z m1125 -5 c0 -2 -8 -10 -17 -17 -16 -13 -17 -12 -4 4 13 16 21 21 21 13z
m-1470 -12 c0 -8 -19 -13 -24 -6 -3 5 1 9 9 9 8 0 15 -2 15 -3z m61 -17 c-6
-8 -7 -18 -3 -23 4 -4 -1 -2 -10 5 -19 14 -25 26 -9 16 5 -3 12 -1 16 5 3 5 9
10 12 10 3 0 0 -6 -6 -13z m346 -2 c0 -8 -4 -12 -9 -9 -5 3 -6 10 -3 15 9 13
12 11 12 -6z m43 -9 c0 -2 -8 -10 -17 -17 -16 -13 -17 -12 -4 4 13 16 21 21
21 13z m-756 -15 c-3 -4 -10 -7 -15 -7 -5 -1 -12 -2 -15 -3 -4 0 0 -9 7 -18
11 -15 11 -16 -1 -6 -22 21 -20 39 6 39 13 0 21 -2 18 -5z m1630 1 c3 -5 -1
-9 -9 -9 -8 0 -12 4 -9 9 3 4 7 8 9 8 2 0 6 -4 9 -8z m-804 -16 c0 -2 -8 -10
-17 -17 -16 -13 -17 -12 -4 4 13 16 21 21 21 13z m741 -23 c13 -16 12 -17 -3
-4 -10 7 -18 15 -18 17 0 8 8 3 21 -13z m993 -11 c3 -5 -1 -9 -9 -9 -8 0 -12
4 -9 9 3 4 7 8 9 8 2 0 6 -4 9 -8z m-1192 -13 c2 -2 1 -3 -1 -2 -2 2 -9 -2
-16 -7 -8 -7 -12 -5 -12 4 0 12 22 16 29 5z m189 -6 c13 -16 12 -17 -3 -4 -10
7 -18 15 -18 17 0 8 8 3 21 -13z m70 -26 c-6 -8 -7 -17 -3 -21 4 -4 3 -7 -3
-6 -21 5 -27 -1 -16 -14 8 -10 9 -16 1 -21 -6 -4 -10 -3 -9 2 4 22 -3 24 -23
7 -14 -12 -18 -13 -10 -3 6 9 8 20 4 24 -4 5 -2 5 4 2 6 -4 22 5 34 18 25 26
41 35 21 12z m-1246 -16 c3 -5 2 -12 -3 -15 -5 -3 -9 1 -9 9 0 17 3 19 12 6z
m189 0 c-3 -3 -11 -6 -17 -6 -7 -1 -11 -6 -10 -11 2 -13 -43 -12 -54 0 -4 5
-3 6 4 2 6 -3 14 -2 18 4 4 6 10 8 15 5 5 -3 11 -2 14 3 3 5 12 9 21 9 8 0 12
-3 9 -6z m42 -7 c-1 -8 -6 -17 -12 -21 -5 -4 -6 -4 -2 1 4 5 3 14 -2 21 -7 8
-5 12 4 12 8 0 13 -6 12 -13z m259 -4 c10 -11 16 -20 13 -20 -3 0 -13 9 -23
20 -10 11 -16 20 -13 20 3 0 13 -9 23 -20z m621 4 c-1 -8 -6 -17 -12 -21 -5
-4 -6 -4 -2 1 4 5 3 14 -2 21 -7 8 -5 12 4 12 8 0 13 -6 12 -13z m-1469 -9 c0
-8 -4 -12 -9 -9 -5 3 -6 10 -3 15 9 13 12 11 12 -6z m1193 2 c0 -2 -10 -12
-22 -23 l-23 -19 19 23 c18 21 26 27 26 19z m-1626 -15 c3 -5 -1 -9 -9 -9 -8
0 -12 4 -9 9 3 4 7 8 9 8 2 0 6 -4 9 -8z m1046 -6 c0 -2 -8 -10 -17 -17 -16
-13 -17 -12 -4 4 13 16 21 21 21 13z m1706 -8 c3 -4 -1 -5 -10 -4 -8 1 -18 5
-22 8 -3 4 1 5 10 4 8 -1 18 -5 22 -8z m159 3 c3 -5 2 -12 -3 -15 -5 -3 -9 1
-9 9 0 17 3 19 12 6z m-1742 -13 c-4 -7 -8 -17 -8 -22 0 -5 -8 -10 -18 -12
-14 -2 -15 1 -8 10 6 7 7 17 3 21 -4 5 -2 5 5 1 6 -3 14 -2 18 4 3 5 8 10 11
10 3 0 2 -6 -3 -12z m1404 -1 c0 -8 -6 -14 -14 -14 -9 0 -10 4 -2 14 6 7 12
13 14 13 1 0 2 -6 2 -13z m-207 -3 c0 -8 -19 -13 -24 -6 -3 5 1 9 9 9 8 0 15
-2 15 -3z m-2143 -29 c0 -8 -4 -12 -9 -9 -5 3 -6 10 -3 15 9 13 12 11 12 -6z
m1463 9 c0 -8 -19 -13 -24 -6 -3 5 1 9 9 9 8 0 15 -2 15 -3z m1031 -11 c12
-16 12 -17 -2 -6 -9 7 -20 9 -24 5 -5 -4 -5 -1 -1 6 9 16 11 15 27 -5z m233 9
c3 -5 -1 -9 -9 -9 -8 0 -12 4 -9 9 3 4 7 8 9 8 2 0 6 -4 9 -8z m-1994 -5 c0
-2 -10 -12 -22 -23 l-23 -19 19 23 c18 21 26 27 26 19z m250 -11 c0 -2 -6 -9
-14 -15 -11 -9 -16 -9 -22 0 -4 7 -3 9 4 5 6 -3 13 -2 17 4 6 10 15 14 15 6z
m649 -10 c9 -11 9 -16 -1 -22 -7 -4 -10 -4 -6 1 4 4 3 14 -3 22 -6 7 -9 13 -6
13 2 0 10 -6 16 -14z m-614 -5 c3 -5 2 -12 -3 -15 -5 -3 -9 1 -9 9 0 17 3 19
12 6z m359 1 c3 -5 -1 -9 -9 -9 -8 0 -12 4 -9 9 3 4 7 8 9 8 2 0 6 -4 9 -8z
m-1587 -27 c0 -8 -4 -12 -9 -9 -5 3 -6 10 -3 15 9 13 12 11 12 -6z m1203 11
c0 -2 -8 -10 -17 -17 -16 -13 -17 -12 -4 4 13 16 21 21 21 13z m1397 -11 c0
-8 -4 -12 -9 -9 -5 3 -6 10 -3 15 9 13 12 11 12 -6z m-1321 -21 c1 -9 0 -13
-4 -10 -3 4 -7 14 -8 22 -1 9 0 13 4 10 3 -4 7 -14 8 -22z m191 -7 c0 -8 -6
-14 -14 -14 -9 0 -10 4 -2 14 6 7 12 13 14 13 1 0 2 -6 2 -13z m1228 4 c3 -5
2 -12 -3 -15 -5 -3 -9 1 -9 9 0 17 3 19 12 6z m-1329 -13 c5 4 5 3 1 -3 -4 -5
-19 -10 -32 -11 -20 -1 -23 2 -14 13 8 9 15 10 24 3 6 -5 16 -6 21 -2z m711
-3 c0 -6 -6 -12 -12 -12 -6 0 -12 6 -12 12 0 6 6 12 12 12 6 0 12 -6 12 -12z
m-1466 -22 c13 -16 12 -17 -3 -4 -17 13 -22 21 -14 21 2 0 10 -8 17 -17z
m-690 -10 c11 -15 11 -16 -1 -6 -10 9 -17 10 -27 2 -7 -7 -13 -8 -13 -4 0 4
-8 1 -17 -6 -16 -13 -17 -12 -4 3 7 10 17 16 21 13 5 -3 11 -1 15 5 8 13 10
13 26 -7z m1489 11 c0 -8 -19 -13 -24 -6 -3 5 1 9 9 9 8 0 15 -2 15 -3z m1240
2 c0 -2 -8 -10 -17 -17 -16 -13 -17 -12 -4 4 13 16 21 21 21 13z m-1295 -25
c-2 -9 -4 -18 -4 -20 -1 -2 -8 2 -16 9 -17 14 -13 27 8 27 8 0 13 -7 12 -16z
m1242 6 c0 -8 -6 -14 -14 -14 -9 0 -10 4 -2 14 6 7 12 13 14 13 1 0 2 -6 2
-13z m347 -8 c-3 -5 -10 -7 -15 -3 -5 3 -7 10 -3 15 3 5 10 7 15 3 5 -3 7 -10
3 -15z m33 6 c0 -8 -4 -12 -9 -9 -5 3 -6 10 -3 15 9 13 12 11 12 -6z m-2850
-12 c0 -9 -4 -10 -14 -2 -7 6 -13 12 -13 14 0 1 6 2 13 2 8 0 14 -6 14 -14z
m559 -25 c16 -18 22 -27 13 -20 -9 6 -19 8 -23 4 -4 -4 -6 0 -4 8 2 8 -2 14
-8 13 -6 -1 -11 5 -11 13 0 18 -1 19 33 -18z m-612 14 c3 -5 -1 -9 -9 -9 -8 0
-12 4 -9 9 3 4 7 8 9 8 2 0 6 -4 9 -8z m-179 -21 c3 -5 2 -12 -3 -15 -5 -3 -9
1 -9 9 0 17 3 19 12 6z m555 5 c0 -2 -8 -10 -17 -17 -16 -13 -17 -12 -4 4 13
16 21 21 21 13z m-333 -21 c0 -8 -4 -12 -9 -9 -5 3 -6 10 -3 15 9 13 12 11 12
-6z m620 0 c0 -8 -4 -12 -9 -9 -5 3 -6 10 -3 15 9 13 12 11 12 -6z m2180 -20
c0 -8 -4 -12 -9 -9 -5 3 -6 10 -3 15 9 13 12 11 12 -6z m-2786 -22 c13 -16 12
-17 -3 -4 -10 7 -18 15 -18 17 0 8 8 3 21 -13z m-224 -8 c0 -8 -4 -12 -9 -9
-5 3 -6 10 -3 15 9 13 12 11 12 -6z m2590 -10 c0 -8 -4 -12 -9 -9 -5 3 -6 10
-3 15 9 13 12 11 12 -6z m232 2 c8 -10 7 -14 -2 -14 -8 0 -14 6 -14 14 0 7 1
13 2 13 2 0 8 -6 14 -13z m191 7 c0 -8 -19 -13 -24 -6 -3 5 1 9 9 9 8 0 15 -2
15 -3z m-2925 -23 c-9 -8 -36 -10 -30 -2 2 4 11 8 20 8 8 0 13 -3 10 -6z
m1049 1 c3 -5 -1 -9 -9 -9 -8 0 -12 4 -9 9 3 4 7 8 9 8 2 0 6 -4 9 -8z m653
-7 c0 -8 -4 -12 -9 -9 -5 3 -6 10 -3 15 9 13 12 11 12 -6z m108 6 c3 -5 2 -12
-3 -15 -5 -3 -9 1 -9 9 0 17 3 19 12 6z m-1380 -10 c-9 -8 -36 -10 -30 -2 2 4
11 8 20 8 8 0 13 -3 10 -6z m271 -16 c1 -8 -1 -17 -5 -19 -4 -3 -7 6 -7 19 0
25 8 25 12 0z m1194 19 c0 -8 -19 -13 -24 -6 -3 5 1 9 9 9 8 0 15 -2 15 -3z
m-1979 -21 c13 -16 12 -17 -3 -4 -10 7 -18 15 -18 17 0 8 8 3 21 -13z m434 -2
c-4 -3 -12 -6 -18 -6 -7 -1 -11 -6 -9 -13 3 -17 -3 -15 -19 5 -8 9 -9 14 -3
10 7 -4 17 0 24 8 7 8 17 12 22 9 5 -3 6 -9 3 -13z m640 0 c-9 -8 -36 -10 -30
-2 2 4 11 8 20 8 8 0 13 -3 10 -6z m-555 -17 c0 -8 -19 -13 -24 -6 -3 5 1 9 9
9 8 0 15 -2 15 -3z m-46 -12 c3 -5 -1 -9 -9 -9 -8 0 -12 4 -9 9 3 4 7 8 9 8 2
0 6 -4 9 -8z m2676 2 c0 -8 -19 -13 -24 -6 -3 5 1 9 9 9 8 0 15 -2 15 -3z
m-1330 -8 c0 -2 -8 -10 -17 -17 -16 -13 -17 -12 -4 4 13 16 21 21 21 13z
m1231 -13 c13 -16 12 -17 -3 -4 -17 13 -22 21 -14 21 2 0 10 -8 17 -17z m59 1
c0 -8 -19 -13 -24 -6 -3 5 1 9 9 9 8 0 15 -2 15 -3z m-2720 -20 c0 -8 -19 -13
-24 -6 -3 5 1 9 9 9 8 0 15 -2 15 -3z m757 -9 c0 -8 -4 -12 -9 -9 -5 3 -6 10
-3 15 9 13 12 11 12 -6z m943 -10 c0 -2 -6 -8 -13 -14 -10 -8 -14 -7 -14 2 0
8 6 14 14 14 7 0 13 -1 13 -2z m-775 -24 c3 -5 2 -12 -3 -15 -5 -3 -9 1 -9 9
0 17 3 19 12 6z m-815 -7 c0 -8 -19 -13 -24 -6 -3 5 1 9 9 9 8 0 15 -2 15 -3z
m883 -24 c10 -12 9 -12 -3 -3 -8 6 -23 9 -33 8 -9 -2 -15 0 -12 5 7 12 33 6
48 -10z m47 14 c0 -8 -19 -13 -24 -6 -3 5 1 9 9 9 8 0 15 -2 15 -3z m797 -9
c0 -8 -4 -12 -9 -9 -5 3 -6 10 -3 15 9 13 12 11 12 -6z m747 6 c3 -5 -2 -15
-12 -22 -15 -12 -16 -12 -5 2 7 9 10 19 6 22 -3 4 -4 7 0 7 3 0 8 -4 11 -9z
m176 5 c0 -2 -8 -10 -17 -17 -16 -13 -17 -12 -4 4 13 16 21 21 21 13z m-646
-27 c-3 -5 -10 -7 -15 -3 -5 3 -7 10 -3 15 3 5 10 7 15 3 5 -3 7 -10 3 -15z
m-127 -14 c0 -8 -4 -12 -9 -9 -5 3 -6 10 -3 15 9 13 12 11 12 -6z m-941 -7 c3
-4 -1 -5 -10 -4 -8 1 -18 5 -22 8 -3 4 1 5 10 4 8 -1 18 -5 22 -8z m1579 3 c3
-5 2 -12 -3 -15 -5 -3 -9 1 -9 9 0 17 3 19 12 6z m-1525 -16 c-5 -7 -6 -16 -2
-21 4 -4 -1 -2 -10 5 -20 15 -17 28 6 28 11 0 13 -4 6 -12z m57 1 c4 -4 1 -6
-7 -4 -8 2 -14 -2 -13 -8 1 -6 -5 -11 -12 -11 -10 0 -12 4 -5 12 5 7 7 14 4
18 -3 3 1 4 10 3 8 -1 19 -6 23 -10z m-1011 -22 c2 -12 -1 -13 -12 -3 -7 6
-11 16 -8 21 7 11 17 3 20 -18z m2364 13 c0 -2 -10 -12 -22 -23 l-23 -19 19
23 c18 21 26 27 26 19z m-2363 -54 c0 -9 -4 -10 -12 -3 -17 14 -27 0 -12 -19
10 -14 10 -14 -3 -4 -8 6 -18 11 -22 10 -3 -1 -10 2 -15 6 -4 5 -1 7 7 5 8 -1
14 2 13 8 -1 5 9 10 21 10 12 0 23 -6 23 -13z m2288 8 c3 -5 2 -12 -3 -15 -5
-3 -9 1 -9 9 0 17 3 19 12 6z m-2669 -27 c1 -9 0 -13 -4 -10 -3 4 -7 14 -8 22
-1 9 0 13 4 10 3 -4 7 -14 8 -22z m2825 9 c13 -16 12 -17 -3 -4 -10 7 -18 15
-18 17 0 8 8 3 21 -13z m-1865 -15 c3 -4 -1 -5 -10 -4 -8 1 -18 5 -22 8 -3 4
1 5 10 4 8 -1 18 -5 22 -8z m1179 3 c3 -5 2 -12 -3 -15 -5 -3 -9 1 -9 9 0 17
3 19 12 6z m179 -19 c3 -5 -1 -9 -9 -9 -8 0 -12 4 -9 9 3 4 7 8 9 8 2 0 6 -4
9 -8z m-2257 -9 c-4 -3 -1 -13 6 -22 11 -14 10 -14 -5 -2 -16 12 -16 31 -1 31
4 0 3 -3 0 -7z m1023 3 c0 -2 -8 -10 -17 -17 -16 -13 -17 -12 -4 4 13 16 21
21 21 13z m60 0 c0 -2 -8 -10 -17 -17 -16 -13 -17 -12 -4 4 13 16 21 21 21 13z
m-742 -19 c9 -10 4 -13 -23 -13 -18 0 -31 4 -29 8 3 5 9 6 14 3 5 -3 11 -1 15
5 8 13 10 13 23 -3z m463 -4 c13 -16 12 -17 -3 -4 -10 7 -18 15 -18 17 0 8 8
3 21 -13z m834 8 c3 -5 2 -12 -3 -15 -5 -3 -9 1 -9 9 0 17 3 19 12 6z m659 1
c3 -5 -1 -9 -9 -9 -8 0 -12 4 -9 9 3 4 7 8 9 8 2 0 6 -4 9 -8z m-1314 -6 c0
-2 -8 -10 -17 -17 -16 -13 -17 -12 -4 4 13 16 21 21 21 13z m1455 -15 c3 -5 2
-12 -3 -15 -5 -3 -9 1 -9 9 0 17 3 19 12 6z m475 3 c0 -8 -19 -13 -24 -6 -3 5
1 9 9 9 8 0 15 -2 15 -3z m-633 -11 c-4 -3 -1 -13 6 -22 10 -14 10 -14 -4 -4
-9 7 -20 9 -25 5 -4 -4 -2 1 5 11 7 9 16 17 19 17 3 0 2 -3 -1 -7z m-2270 -20
c0 -9 -4 -10 -14 -2 -7 6 -13 12 -13 14 0 1 6 2 13 2 8 0 14 -6 14 -14z m1274
0 c13 -16 12 -17 -3 -4 -10 7 -18 15 -18 17 0 8 8 3 21 -13z m349 11 c0 -8
-19 -13 -24 -6 -3 5 1 9 9 9 8 0 15 -2 15 -3z m60 3 c0 -2 -9 -12 -19 -21 -14
-13 -21 -14 -27 -5 -4 7 -3 10 3 6 6 -4 16 0 23 8 12 14 20 19 20 12z m-1866
-15 c3 -5 -1 -9 -9 -9 -8 0 -12 4 -9 9 3 4 7 8 9 8 2 0 6 -4 9 -8z m133 -7 c0
-8 -4 -12 -9 -9 -5 3 -6 10 -3 15 9 13 12 11 12 -6z m927 -6 c-9 -10 -21 -16
-26 -13 -12 8 8 31 27 31 13 0 13 -3 -1 -18z m1967 4 c13 -16 12 -17 -3 -4
-17 13 -22 21 -14 21 2 0 10 -8 17 -17z m-2791 -7 c0 -2 -8 -10 -17 -17 -16
-13 -17 -12 -4 4 13 16 21 21 21 13z m567 -21 c0 -8 -4 -12 -9 -9 -5 3 -6 10
-3 15 9 13 12 11 12 -6z m1140 0 c0 -6 -6 -12 -12 -12 -6 0 -12 6 -12 12 0 6
6 12 12 12 6 0 12 -6 12 -12z m-142 -4 c3 -5 2 -12 -3 -15 -5 -3 -9 1 -9 9 0
17 3 19 12 6z m172 2 c-4 -3 -2 -11 3 -18 7 -8 5 -12 -4 -12 -8 0 -12 7 -11
16 5 22 4 21 12 21 3 0 3 -3 0 -7z m47 -1 c3 -5 -1 -9 -9 -9 -8 0 -12 4 -9 9
3 4 7 8 9 8 2 0 6 -4 9 -8z m175 -15 c8 -10 7 -14 -2 -14 -8 0 -14 6 -14 14 0
7 1 13 2 13 2 0 8 -6 14 -13z m-1325 -15 c3 -5 -1 -9 -9 -9 -8 0 -12 4 -9 9 3
4 7 8 9 8 2 0 6 -4 9 -8z m1147 -9 c13 -16 12 -17 -3 -4 -17 13 -22 21 -14 21
2 0 10 -8 17 -17z m73 9 c3 -5 -1 -9 -9 -9 -8 0 -12 4 -9 9 3 4 7 8 9 8 2 0 6
-4 9 -8z m-1294 -6 c0 -2 -8 -10 -17 -17 -16 -13 -17 -12 -4 4 13 16 21 21 21
13z m1084 -18 c-4 -5 -9 -7 -12 -4 -3 3 -11 1 -18 -5 -8 -7 -14 -6 -20 2 -4 7
-3 9 4 5 6 -3 13 -3 16 2 3 5 12 9 20 9 8 0 13 -4 10 -9z m51 3 c3 -5 2 -12
-3 -15 -5 -3 -9 1 -9 9 0 17 3 19 12 6z m-1835 -5 c0 -2 -8 -10 -17 -17 -16
-13 -17 -12 -4 4 13 16 21 21 21 13z m740 0 c0 -2 -8 -10 -17 -17 -16 -13 -17
-12 -4 4 13 16 21 21 21 13z m306 -8 c4 -7 4 -10 -1 -6 -4 4 -15 2 -24 -5 -14
-11 -14 -10 -2 6 16 20 18 21 27 5z m505 -5 c13 -16 12 -17 -3 -4 -10 7 -18
15 -18 17 0 8 8 3 21 -13z m-424 -10 c0 -9 -4 -10 -14 -2 -7 6 -13 12 -13 14
0 1 6 2 13 2 8 0 14 -6 14 -14z m919 -5 c4 -7 4 -10 -1 -6 -4 4 -15 2 -24 -5
-14 -11 -14 -10 -2 6 16 20 18 21 27 5z m-1409 -21 c0 -8 -6 -14 -14 -14 -9 0
-10 4 -2 14 6 7 12 13 14 13 1 0 2 -6 2 -13z m1659 -9 c3 -4 -1 -5 -10 -4 -8
1 -18 5 -22 8 -3 4 1 5 10 4 8 -1 18 -5 22 -8z m-2312 -6 c3 -5 -1 -9 -9 -9
-8 0 -12 4 -9 9 3 4 7 8 9 8 2 0 6 -4 9 -8z m987 -5 c-6 -8 -7 -18 -3 -22 4
-5 1 -5 -6 -1 -10 6 -10 11 -1 22 6 8 14 14 16 14 3 0 0 -6 -6 -13z m205 -2
c-1 -8 -5 -17 -8 -21 -5 -4 -4 16 1 34 3 9 9 -1 7 -13z m951 -12 c0 -9 -4 -10
-14 -2 -7 6 -13 12 -13 14 0 1 6 2 13 2 8 0 14 -6 14 -14z m-2176 -10 c13 -16
12 -17 -3 -4 -17 13 -22 21 -14 21 2 0 10 -8 17 -17z m1119 1 c0 -8 -19 -13
-24 -6 -3 5 1 9 9 9 8 0 15 -2 15 -3z m-193 -21 c0 -9 -4 -10 -14 -2 -7 6 -13
12 -13 14 0 1 6 2 13 2 8 0 14 -6 14 -14z m2134 0 c13 -16 12 -17 -3 -4 -17
13 -22 21 -14 21 2 0 10 -8 17 -17z m-2615 -5 c3 -4 -1 -5 -10 -4 -8 1 -18 5
-22 8 -3 4 1 5 10 4 8 -1 18 -5 22 -8z m578 3 c3 -5 -1 -14 -8 -20 -12 -10
-14 -9 -11 6 2 10 4 19 4 21 2 5 10 2 15 -7z m1431 -30 c3 -5 2 -12 -3 -15 -5
-3 -9 1 -9 9 0 17 3 19 12 6z m-2073 -12 c2 -2 1 -3 -1 -1 -2 1 -14 -6 -25
-15 -15 -14 -18 -14 -8 -2 6 9 9 18 6 22 -3 3 1 4 10 3 8 -1 17 -4 18 -7z m48
-3 c0 -2 -8 -10 -17 -17 -16 -13 -17 -12 -4 4 13 16 21 21 21 13z m780 0 c0
-2 -8 -10 -17 -17 -16 -13 -17 -12 -4 4 13 16 21 21 21 13z m391 -13 c13 -16
12 -17 -3 -4 -17 13 -22 21 -14 21 2 0 10 -8 17 -17z m-596 -2 c3 -5 2 -12 -3
-15 -5 -3 -9 1 -9 9 0 17 3 19 12 6z m121 -3 c4 -7 3 -10 -1 -5 -5 4 -18 -1
-29 -10 -21 -18 -21 -18 -2 5 22 26 23 26 32 10z m1267 -8 c10 -12 9 -12 -4
-2 -9 6 -18 9 -21 6 -3 -3 -9 -1 -12 4 -9 15 22 8 37 -8z m-1667 -12 c3 -4 -1
-5 -10 -4 -8 1 -18 5 -22 8 -3 4 1 5 10 4 8 -1 18 -5 22 -8z m591 -3 c0 -8 -4
-12 -9 -9 -5 3 -6 10 -3 15 9 13 12 11 12 -6z m-1352 -34 c3 -5 2 -12 -3 -15
-5 -3 -9 1 -9 9 0 17 3 19 12 6z m1179 -19 c3 -5 -1 -9 -9 -9 -8 0 -12 4 -9 9
3 4 7 8 9 8 2 0 6 -4 9 -8z m576 -18 c0 -8 -19 -13 -24 -6 -3 5 1 9 9 9 8 0
15 -2 15 -3z m-1390 -10 c0 -8 -19 -13 -24 -6 -3 5 1 9 9 9 8 0 15 -2 15 -3z
m520 2 c0 -2 -6 -9 -14 -15 -11 -9 -16 -9 -22 0 -4 7 -3 9 4 5 6 -3 13 -2 17
4 6 10 15 14 15 6z m2100 -2 c0 -8 -19 -13 -24 -6 -3 5 1 9 9 9 8 0 15 -2 15
-3z m-2913 -19 c0 -8 -4 -12 -9 -9 -5 3 -6 10 -3 15 9 13 12 11 12 -6z m1030
-10 c0 -8 -4 -12 -9 -9 -5 3 -6 10 -3 15 9 13 12 11 12 -6z m343 9 c0 -8 -19
-13 -24 -6 -3 5 1 9 9 9 8 0 15 -2 15 -3z m-1145 -13 c3 -5 2 -12 -3 -15 -5
-3 -9 1 -9 9 0 17 3 19 12 6z m2664 -24 c8 -10 7 -14 -2 -14 -8 0 -14 6 -14
14 0 7 1 13 2 13 2 0 8 -6 14 -13z m-3042 -10 c0 -8 -6 -14 -14 -14 -9 0 -10
4 -2 14 6 7 12 13 14 13 1 0 2 -6 2 -13z m2493 -1 c0 -2 -6 -9 -14 -15 -11 -9
-16 -9 -22 0 -4 7 -3 9 4 5 6 -3 13 -2 17 4 6 10 15 14 15 6z m644 -4 c3 -5
-1 -9 -9 -9 -8 0 -12 4 -9 9 3 4 7 8 9 8 2 0 6 -4 9 -8z m-1514 -8 c0 -8 -19
-13 -24 -6 -3 5 1 9 9 9 8 0 15 -2 15 -3z m964 -2 c3 -5 -1 -9 -9 -9 -8 0 -12
4 -9 9 3 4 7 8 9 8 2 0 6 -4 9 -8z m-1037 -17 c0 -6 -6 -12 -12 -12 -6 0 -12
6 -12 12 0 6 6 12 12 12 6 0 12 -6 12 -12z m1508 6 c3 -5 2 -12 -3 -15 -5 -3
-9 1 -9 9 0 17 3 19 12 6z m-1735 -7 c0 -8 -19 -13 -24 -6 -3 5 1 9 9 9 8 0
15 -2 15 -3z m620 0 c0 -8 -19 -13 -24 -6 -3 5 1 9 9 9 8 0 15 -2 15 -3z
m-1605 -16 c4 -3 2 -9 -3 -12 -5 -3 -15 1 -21 8 -10 11 -9 14 3 12 9 -1 18 -5
21 -8z m1635 -14 c8 -8 9 -14 3 -12 -6 2 -11 -1 -11 -7 0 -5 4 -9 9 -7 5 1 8
-3 7 -10 -5 -20 45 -16 72 6 15 13 19 15 12 4 -7 -9 -9 -18 -5 -20 4 -2 69 -4
143 -3 111 1 134 3 132 15 -2 10 3 8 18 -5 26 -24 23 -23 43 -7 9 8 18 9 21 3
7 -10 24 -10 43 2 6 4 14 3 17 -2 9 -13 42 -6 38 9 -1 7 2 8 10 3 7 -4 20 -8
28 -8 8 0 20 -3 25 -6 19 -10 100 -4 100 8 0 6 4 15 9 20 5 4 6 3 3 -3 -4 -7
0 -17 8 -24 14 -12 20 -7 16 14 -1 5 5 4 13 -4 17 -14 22 -25 7 -15 -5 3 -12
2 -14 -2 -3 -5 -141 -8 -307 -8 -166 0 -304 -3 -307 -8 -2 -4 -10 -4 -16 0
-16 10 -277 10 -284 1 -2 -5 -10 -5 -16 -1 -16 10 -197 11 -203 1 -3 -5 -11
-5 -17 -1 -16 10 -1197 10 -1204 0 -2 -4 -10 -4 -16 0 -15 10 -29 11 -42 3
-19 -12 -38 -5 -41 13 -2 18 -1 18 16 2 20 -18 29 -11 24 18 -1 11 1 16 4 12
4 -4 7 -12 7 -18 0 -12 62 -18 80 -8 15 9 29 8 42 -1 6 -5 14 -5 17 1 5 8 34
8 44 1 7 -7 29 -5 39 2 6 5 14 5 16 1 4 -7 152 -10 165 -4 1 0 4 0 5 -1 2 -2
12 3 21 11 14 12 17 12 14 1 -4 -19 188 -22 204 -3 9 11 14 11 27 0 19 -15 67
-16 64 -1 -1 6 4 11 12 11 8 0 13 -5 12 -11 -2 -11 100 -17 118 -7 15 9 29 8
42 -1 6 -5 14 -5 18 2 3 6 12 7 18 3 17 -11 57 -11 63 -1 3 4 11 5 17 1 16
-10 337 -10 344 0 3 4 10 4 16 -1 16 -11 42 -9 40 4 -1 6 4 11 12 11 8 0 13
-5 12 -11 -2 -13 24 -15 40 -4 6 5 14 5 16 1 3 -5 32 -8 64 -7 71 2 68 1 54
18 -8 10 -9 16 -1 21 6 3 8 11 5 16 -10 15 1 10 15 -7z m1085 -3 c3 -5 2 -12
-3 -15 -5 -3 -9 1 -9 9 0 17 3 19 12 6z m-1635 -5 c0 -2 -8 -10 -17 -17 -16
-13 -17 -12 -4 4 13 16 21 21 21 13z m1509 -9 c8 -10 7 -14 -2 -14 -8 0 -14 6
-14 14 0 7 1 13 2 13 2 0 8 -6 14 -13z m99 -9 c-2 -7 7 -12 19 -13 12 0 25 -4
30 -9 4 -5 3 -6 -4 -2 -6 3 -15 2 -18 -4 -5 -8 -11 -8 -19 -1 -7 6 -15 8 -19
5 -4 -5 -3 16 2 34 3 8 11 0 9 -10z m-54 -16 c3 -5 -1 -9 -9 -9 -8 0 -12 4 -9
9 3 4 7 8 9 8 2 0 6 -4 9 -8z m-2924 -18 c0 -8 -19 -13 -24 -6 -3 5 1 9 9 9 8
0 15 -2 15 -3z m2747 -19 c0 -8 -4 -12 -9 -9 -5 3 -6 10 -3 15 9 13 12 11 12
-6z m177 -3 c3 -5 -1 -9 -9 -9 -8 0 -12 4 -9 9 3 4 7 8 9 8 2 0 6 -4 9 -8z
m101 -1 c3 -5 2 -12 -3 -15 -5 -3 -9 1 -9 9 0 17 3 19 12 6z m-2735 -7 c0 -8
-19 -13 -24 -6 -3 5 1 9 9 9 8 0 15 -2 15 -3z m40 0 c0 -8 -19 -13 -24 -6 -3
5 1 9 9 9 8 0 15 -2 15 -3z m80 0 c0 -8 -19 -13 -24 -6 -3 5 1 9 9 9 8 0 15
-2 15 -3z m84 -2 c3 -5 -1 -9 -9 -9 -8 0 -12 4 -9 9 3 4 7 8 9 8 2 0 6 -4 9
-8z m1316 2 c0 -8 -19 -13 -24 -6 -3 5 1 9 9 9 8 0 15 -2 15 -3z m414 -3 c-8
-8 -34 -10 -38 -2 -3 4 6 7 19 7 14 0 22 -2 19 -5z m46 3 c0 -8 -19 -13 -24
-6 -3 5 1 9 9 9 8 0 15 -2 15 -3z m44 -2 c3 -5 -1 -9 -9 -9 -8 0 -12 4 -9 9 3
4 7 8 9 8 2 0 6 -4 9 -8z m630 -33 c3 -3 -5 -5 -19 -5 -13 0 -22 3 -19 7 4 8
30 6 38 -2z m37 -13 c-6 -7 -7 -17 -3 -21 4 -5 2 -5 -5 -2 -9 6 -10 18 -4 45
1 2 6 0 11 -3 8 -5 8 -11 1 -19z m40 0 c-6 -7 -7 -17 -3 -21 4 -5 2 -5 -5 -2
-9 6 -10 18 -4 45 1 2 6 0 11 -3 8 -5 8 -11 1 -19z m-2685 2 c3 -4 -1 -5 -10
-4 -8 1 -18 5 -22 8 -3 4 1 5 10 4 8 -1 18 -5 22 -8z m109 3 c-9 -8 -36 -10
-30 -2 2 4 11 8 20 8 8 0 13 -3 10 -6z m109 1 c3 -5 -1 -9 -9 -9 -8 0 -12 4
-9 9 3 4 7 8 9 8 2 0 6 -4 9 -8z m51 -1 c-9 -8 -36 -10 -30 -2 2 4 11 8 20 8
8 0 13 -3 10 -6z m49 1 c3 -5 -1 -9 -9 -9 -8 0 -12 4 -9 9 3 4 7 8 9 8 2 0 6
-4 9 -8z m140 0 c3 -5 -1 -9 -9 -9 -8 0 -12 4 -9 9 3 4 7 8 9 8 2 0 6 -4 9 -8z
m90 -1 c-7 -8 -54 -9 -49 -1 2 3 15 6 29 6 14 0 23 -2 20 -5z m490 -12 c-3 -5
-10 -7 -15 -3 -5 3 -7 10 -3 15 3 5 10 7 15 3 5 -3 7 -10 3 -15z m200 13 c3
-5 -1 -9 -9 -9 -8 0 -12 4 -9 9 3 4 7 8 9 8 2 0 6 -4 9 -8z m100 -3 c3 -3 -10
-5 -29 -4 -18 0 -36 3 -39 6 -3 3 10 5 29 4 18 0 36 -3 39 -6z m101 0 c3 -3
-6 -5 -19 -5 -14 1 -28 4 -31 7 -3 3 6 5 19 5 14 -1 28 -4 31 -7z m119 3 c3
-5 -1 -9 -9 -9 -8 0 -12 4 -9 9 3 4 7 8 9 8 2 0 6 -4 9 -8z m110 -1 c-7 -8
-74 -9 -69 -1 2 3 19 6 39 6 19 0 33 -3 30 -5z m72 -3 c3 -4 -2 -5 -13 -4 -10
2 -25 -2 -33 -8 -13 -9 -13 -9 -2 6 12 16 35 18 48 6z m78 1 c3 -2 -10 -5 -29
-5 -18 0 -32 3 -30 7 5 7 52 6 59 -2z m130 2 c-7 -8 -54 -9 -59 -2 -2 4 12 7
30 7 19 0 32 -3 29 -5z m86 3 c0 -8 -19 -13 -24 -6 -3 5 1 9 9 9 8 0 15 -2 15
-3z m40 0 c0 -8 -19 -13 -24 -6 -3 5 1 9 9 9 8 0 15 -2 15 -3z m-1979 -181
c12 -16 12 -17 -2 -6 -9 7 -20 9 -24 5 -5 -4 -5 -1 -1 6 9 16 11 15 27 -5z
m176 3 c4 -4 4 -7 -2 -6 -5 1 -12 1 -15 0 -21 -8 -37 -6 -37 4 0 14 41 15 54
2z m119 2 c4 -7 4 -10 -1 -6 -4 4 -14 3 -21 -3 -8 -7 -14 -6 -20 2 -4 7 -3 9
4 5 6 -3 13 -2 17 4 8 13 12 13 21 -2z m679 0 c5 4 5 1 1 -6 -6 -10 -11 -10
-22 -1 -8 6 -14 14 -14 16 0 3 6 0 13 -6 8 -6 18 -7 22 -3z m639 -9 c-3 -5
-10 -7 -15 -3 -5 3 -7 10 -3 15 3 5 10 7 15 3 5 -3 7 -10 3 -15z m980 0 c-3
-5 -10 -7 -15 -3 -5 3 -7 10 -3 15 3 5 10 7 15 3 5 -3 7 -10 3 -15z m-2774 5
c0 -8 -19 -13 -24 -6 -3 5 1 9 9 9 8 0 15 -2 15 -3z m40 0 c0 -8 -19 -13 -24
-6 -3 5 1 9 9 9 8 0 15 -2 15 -3z m184 -2 c3 -5 -1 -9 -9 -9 -8 0 -12 4 -9 9
3 4 7 8 9 8 2 0 6 -4 9 -8z m62 -4 c3 -4 -1 -5 -10 -4 -8 1 -18 5 -22 8 -3 4
1 5 10 4 8 -1 18 -5 22 -8z m278 4 c3 -5 -1 -9 -9 -9 -8 0 -12 4 -9 9 3 4 7 8
9 8 2 0 6 -4 9 -8z m460 -3 c3 -3 -5 -5 -19 -5 -13 0 -22 3 -19 7 4 8 30 6 38
-2z m416 5 c0 -8 -19 -13 -24 -6 -3 5 1 9 9 9 8 0 15 -2 15 -3z m160 0 c0 -8
-19 -13 -24 -6 -3 5 1 9 9 9 8 0 15 -2 15 -3z m484 -4 c3 -3 -28 -5 -69 -5
-40 0 -76 3 -79 5 -3 3 28 5 69 5 40 0 76 -3 79 -5z m56 4 c0 -8 -19 -13 -24
-6 -3 5 1 9 9 9 8 0 15 -2 15 -3z m125 -5 c3 -3 -6 -5 -19 -5 -14 1 -28 4 -31
7 -3 3 6 5 19 5 14 -1 28 -4 31 -7z m-1610 -38 c-9 -8 -36 -10 -30 -2 2 4 11
8 20 8 8 0 13 -3 10 -6z m149 1 c3 -5 -1 -9 -9 -9 -8 0 -12 4 -9 9 3 4 7 8 9
8 2 0 6 -4 9 -8z m240 0 c3 -5 -1 -9 -9 -9 -8 0 -12 4 -9 9 3 4 7 8 9 8 2 0 6
-4 9 -8z m71 -1 c-9 -8 -36 -10 -30 -2 2 4 11 8 20 8 8 0 13 -3 10 -6z m905 3
c0 -8 -19 -13 -24 -6 -3 5 1 9 9 9 8 0 15 -2 15 -3z m-1625 -34 c0 -7 1538 -4
1542 3 2 4 10 4 16 0 17 -11 170 -11 184 -1 6 5 13 5 16 1 7 -10 268 -10 284
0 6 4 14 3 17 -2 4 -5 2 -12 -4 -16 -6 -4 -7 -12 -4 -18 5 -9 3 -8 -6 0 -10
10 -17 10 -27 1 -11 -9 -13 -8 -11 2 3 15 -49 22 -58 8 -3 -4 -11 -5 -17 -1
-20 13 -51 10 -71 -6 -11 -9 -16 -11 -13 -4 9 15 -9 27 -18 13 -4 -7 -12 -7
-18 -2 -14 10 -27 10 -44 -1 -6 -4 -14 -3 -18 3 -4 6 -12 7 -18 3 -17 -11 -30
-11 -44 -1 -6 5 -14 4 -18 -2 -5 -8 -10 -8 -20 0 -9 8 -15 8 -20 0 -3 -6 -12
-7 -18 -3 -16 10 -257 11 -264 1 -2 -5 -10 -5 -16 -1 -17 10 -97 11 -103 1 -3
-5 -11 -5 -17 -1 -17 11 -50 11 -64 0 -7 -5 -13 -6 -13 -2 0 4 -7 2 -16 -5
-12 -11 -15 -11 -12 0 3 14 -19 21 -37 11 -5 -3 -17 -6 -25 -6 -8 0 -21 -4
-28 -8 -8 -6 -11 -4 -10 4 3 15 -22 19 -39 7 -6 -5 -13 -5 -16 -1 -5 7 -257
10 -264 3 -6 -5 -29 -6 -38 -1 -16 9 -456 7 -462 -2 -2 -4 -10 -4 -16 0 -22
14 -52 9 -75 -11 -13 -12 -22 -16 -20 -11 2 6 -1 12 -7 13 -5 2 -15 8 -22 13
-7 7 -14 6 -18 -1 -5 -8 -11 -8 -21 1 -13 11 -19 5 -14 -16 1 -5 -7 -3 -17 6
-24 20 -129 20 -125 -1 3 -11 0 -11 -14 1 -18 15 -122 20 -131 6 -2 -4 -10 -4
-16 1 -10 7 -52 9 -59 2 -8 -7 -60 -6 -64 2 -3 4 -10 5 -16 2 -7 -4 -8 -2 -4
5 6 9 11 9 21 1 7 -6 15 -7 18 -3 3 5 87 8 187 8 100 0 184 3 186 6 3 6 39 4
39 -1z m2099 2 c3 -5 -1 -9 -9 -9 -8 0 -12 4 -9 9 3 4 7 8 9 8 2 0 6 -4 9 -8z
m180 0 c3 -5 -1 -9 -9 -9 -8 0 -12 4 -9 9 3 4 7 8 9 8 2 0 6 -4 9 -8z m100
-13 c-3 -5 -10 -7 -15 -3 -5 3 -7 10 -3 15 3 5 10 7 15 3 5 -3 7 -10 3 -15z
m-3050 3 c3 -5 -1 -9 -9 -9 -8 0 -12 4 -9 9 3 4 7 8 9 8 2 0 6 -4 9 -8z m180
0 c3 -5 -1 -9 -9 -9 -8 0 -12 4 -9 9 3 4 7 8 9 8 2 0 6 -4 9 -8z m1003 -39 c0
-9 -4 -10 -14 -2 -7 6 -13 12 -13 14 0 1 6 2 13 2 8 0 14 -6 14 -14z m1864 -7
c-6 -7 -7 -17 -3 -21 4 -5 1 -5 -6 -1 -9 6 -10 11 -3 20 6 7 7 17 3 21 -4 5
-1 5 6 1 9 -6 10 -11 3 -20z m-2774 -21 c0 -8 -4 -12 -9 -9 -5 3 -6 10 -3 15
9 13 12 11 12 -6z m1868 6 c3 -5 2 -12 -3 -15 -5 -3 -9 1 -9 9 0 17 3 19 12 6z
m-398 -14 c0 -8 -6 -14 -14 -14 -9 0 -10 4 -2 14 6 7 12 13 14 13 1 0 2 -6 2
-13z m560 -2 c0 -8 -4 -12 -9 -9 -5 3 -6 10 -3 15 9 13 12 11 12 -6z m787 7
c3 -5 -1 -9 -9 -9 -8 0 -12 4 -9 9 3 4 7 8 9 8 2 0 6 -4 9 -8z m-988 -28 c1
-9 0 -13 -4 -10 -3 4 -7 14 -8 22 -1 9 0 13 4 10 3 -4 7 -14 8 -22z m-1870
-10 c1 -9 0 -13 -4 -10 -3 4 -7 14 -8 22 -1 9 0 13 4 10 3 -4 7 -14 8 -22z
m2451 11 c0 -8 -4 -12 -9 -9 -5 3 -6 10 -3 15 9 13 12 11 12 -6z m-1216 -8
c-6 -8 -7 -18 -3 -22 4 -5 1 -5 -6 -1 -10 6 -10 11 -1 22 6 8 14 14 16 14 3 0
0 -6 -6 -13z m-624 -4 c-4 -3 -1 -13 6 -22 11 -14 10 -14 -5 -2 -16 12 -16 31
-1 31 4 0 3 -3 0 -7z m-561 -48 c1 -8 -1 -17 -5 -19 -4 -3 -7 6 -7 19 0 25 8
25 12 0z m2409 -13 c-2 -9 -4 -18 -4 -20 -1 -2 -6 0 -11 3 -8 5 -8 11 -1 19 6
7 7 17 3 21 -4 5 -2 5 5 2 6 -4 10 -15 8 -25z m40 19 c3 -5 2 -12 -3 -15 -5
-3 -9 1 -9 9 0 17 3 19 12 6z m-1709 -19 c-3 -3 0 -12 6 -21 10 -13 10 -14 -2
-4 -16 15 -23 46 -8 37 5 -3 7 -9 4 -12z m339 9 c3 -5 2 -12 -3 -15 -5 -3 -9
1 -9 9 0 17 3 19 12 6z m1029 -9 c3 -5 -1 -9 -9 -9 -8 0 -12 4 -9 9 3 4 7 8 9
8 2 0 6 -4 9 -8z m651 -1 c-3 -5 -1 -12 4 -15 8 -5 8 -18 2 -44 -1 -2 -6 0
-11 3 -8 5 -8 11 0 20 8 9 8 15 0 20 -10 6 -5 25 6 25 3 0 3 -4 -1 -9z m-1925
-7 c0 -8 -19 -13 -24 -6 -3 5 1 9 9 9 8 0 15 -2 15 -3z m404 -2 c3 -5 -1 -9
-9 -9 -8 0 -12 4 -9 9 3 4 7 8 9 8 2 0 6 -4 9 -8z m71 -1 c-9 -8 -36 -10 -30
-2 2 4 11 8 20 8 8 0 13 -3 10 -6z m536 -4 c-6 -8 -7 -18 -3 -23 4 -4 -1 -2
-10 5 -19 14 -25 26 -9 16 5 -3 12 -1 16 5 3 5 9 10 12 10 3 0 0 -6 -6 -13z
m469 7 c0 -8 -19 -13 -24 -6 -3 5 1 9 9 9 8 0 15 -2 15 -3z m-295 -13 c-9 -8
-36 -10 -30 -2 2 4 11 8 20 8 8 0 13 -3 10 -6z m-2280 -10 c3 -5 2 -12 -3 -15
-5 -3 -9 1 -9 9 0 17 3 19 12 6z m1422 -15 c0 -15 -21 -16 -34 -1 -4 4 -3 5 4
1 6 -3 14 -2 18 4 8 14 12 13 12 -4z m1280 -1 c0 -8 -4 -12 -9 -9 -5 3 -6 10
-3 15 9 13 12 11 12 -6z m-1966 -22 c13 -16 12 -17 -3 -4 -10 7 -18 15 -18 17
0 8 8 3 21 -13z m314 5 c5 4 5 1 1 -6 -6 -10 -11 -10 -22 -1 -8 6 -14 14 -14
16 0 3 6 0 13 -6 8 -6 18 -7 22 -3z m1612 -3 c0 -8 -4 -12 -9 -9 -5 3 -6 10
-3 15 9 13 12 11 12 -6z m-1721 -22 c-2 -9 -11 -17 -20 -19 -17 -2 -17 -2 0
17 21 23 23 23 20 2z m-721 -2 c3 -5 2 -12 -3 -15 -5 -3 -9 1 -9 9 0 17 3 19
12 6z m1822 -14 c0 -8 -6 -14 -14 -14 -9 0 -10 4 -2 14 6 7 12 13 14 13 1 0 2
-6 2 -13z m143 9 c0 -2 -8 -10 -17 -17 -16 -13 -17 -12 -4 4 13 16 21 21 21
13z m157 -11 c0 -8 -4 -12 -9 -9 -5 3 -6 10 -3 15 9 13 12 11 12 -6z m359 -9
c0 -14 -3 -23 -7 -20 -6 3 -6 22 0 42 3 10 7 -2 7 -22z m-1492 5 c-8 -8 -34
-10 -38 -2 -3 4 6 7 19 7 14 0 22 -2 19 -5z m162 -7 c-1 -8 -6 -17 -12 -21 -5
-4 -6 -4 -2 1 4 5 3 14 -2 21 -7 8 -5 12 4 12 8 0 13 -6 12 -13z m921 1 c0 -6
-6 -12 -12 -12 -6 0 -12 6 -12 12 0 6 6 12 12 12 6 0 12 -6 12 -12z m-1590 -8
c0 -8 -6 -14 -14 -14 -9 0 -10 4 -2 14 6 7 12 13 14 13 1 0 2 -6 2 -13z m767
5 c3 -5 -1 -9 -9 -9 -8 0 -12 4 -9 9 3 4 7 8 9 8 2 0 6 -4 9 -8z m-407 -27 c0
-8 -4 -12 -9 -9 -5 3 -6 10 -3 15 9 13 12 11 12 -6z m470 -10 c0 -8 -4 -12 -9
-9 -5 3 -6 10 -3 15 9 13 12 11 12 -6z m979 0 c-1 -8 -5 -17 -8 -21 -5 -4 -4
16 1 34 3 9 9 -1 7 -13z m-2510 -11 c-1 -8 -6 -17 -12 -21 -5 -4 -6 -4 -2 1 4
5 3 14 -2 21 -7 8 -5 12 4 12 8 0 13 -6 12 -13z m1624 11 c0 -2 -6 -8 -13 -14
-10 -8 -14 -7 -14 2 0 8 6 14 14 14 7 0 13 -1 13 -2z m924 -3 c3 -5 -1 -9 -9
-9 -8 0 -12 4 -9 9 3 4 7 8 9 8 2 0 6 -4 9 -8z m113 -7 c0 -8 -4 -12 -9 -9 -5
3 -6 10 -3 15 9 13 12 11 12 -6z m-2441 -20 c1 -8 -1 -17 -5 -19 -4 -3 -7 6
-7 19 0 25 8 25 12 0z m945 8 c13 -16 12 -17 -3 -4 -17 13 -22 21 -14 21 2 0
10 -8 17 -17z m1545 -18 c1 -8 -1 -17 -5 -19 -4 -3 -7 6 -7 19 0 25 8 25 12 0z
m334 20 c0 -2 -6 -8 -13 -14 -10 -8 -14 -7 -14 2 0 8 6 14 14 14 7 0 13 -1 13
-2z m-1784 -31 c1 -9 0 -13 -4 -10 -3 4 -7 14 -8 22 -1 9 0 13 4 10 3 -4 7
-14 8 -22z m1401 1 c0 -8 -4 -12 -9 -9 -5 3 -6 10 -3 15 9 13 12 11 12 -6z
m-1356 -12 c13 -16 12 -17 -3 -4 -17 13 -22 21 -14 21 2 0 10 -8 17 -17z
m-1054 -18 c0 -8 -4 -12 -9 -9 -5 3 -6 10 -3 15 9 13 12 11 12 -6z m528 3 c5
4 5 1 1 -6 -6 -10 -11 -10 -22 -1 -8 6 -14 14 -14 16 0 3 6 0 13 -6 8 -6 18
-7 22 -3z m1160 3 c3 -5 2 -12 -3 -15 -5 -3 -9 1 -9 9 0 17 3 19 12 6z m555 3
c0 -8 -19 -13 -24 -6 -3 5 1 9 9 9 8 0 15 -2 15 -3z m-583 -38 c4 -4 1 -6 -7
-4 -8 2 -14 -2 -13 -8 1 -6 -5 -11 -12 -11 -10 0 -12 4 -5 12 5 7 7 14 4 18
-3 3 1 4 10 3 8 -1 19 -6 23 -10z m338 5 c3 -5 2 -12 -3 -15 -5 -3 -9 1 -9 9
0 17 3 19 12 6z m32 2 c-4 -3 -2 -11 3 -18 7 -8 5 -12 -4 -12 -8 0 -12 7 -11
16 5 22 4 21 12 21 3 0 3 -3 0 -7z m-1087 -7 c0 -2 -8 -10 -17 -17 -16 -13
-17 -12 -4 4 13 16 21 21 21 13z m-593 -21 c0 -8 -4 -12 -9 -9 -5 3 -6 10 -3
15 9 13 12 11 12 -6z m1539 -21 c1 -9 -1 -13 -4 -9 -4 4 -7 10 -7 13 0 4 -4
14 -9 22 -7 12 -6 13 4 3 8 -7 15 -20 16 -29z m845 13 c-7 -7 -7 -15 2 -26 11
-14 10 -14 -6 -2 -12 9 -14 17 -7 26 5 6 6 16 2 20 -4 5 -1 5 6 0 10 -5 11
-10 3 -18z m-2774 -2 c0 -8 -4 -12 -9 -9 -5 3 -6 10 -3 15 9 13 12 11 12 -6z
m1410 -10 c0 -8 -4 -12 -9 -9 -5 3 -6 10 -3 15 9 13 12 11 12 -6z m-1362 -4
c3 -5 2 -12 -3 -15 -5 -3 -9 1 -9 9 0 17 3 19 12 6z m2026 -4 c-6 -8 -7 -18
-3 -22 4 -5 1 -5 -6 -1 -10 6 -10 11 -1 22 6 8 14 14 16 14 3 0 0 -6 -6 -13z
m384 -6 c3 -5 2 -12 -3 -15 -5 -3 -9 1 -9 9 0 17 3 19 12 6z m32 -6 c0 -8 -4
-12 -9 -9 -5 3 -6 10 -3 15 9 13 12 11 12 -6z m319 -9 c0 -14 -3 -23 -7 -20
-6 3 -6 22 0 42 3 10 7 -2 7 -22z m-2761 -15 c3 -5 2 -12 -3 -15 -5 -3 -9 1
-9 9 0 17 3 19 12 6z m107 -23 c-14 -14 -44 -20 -36 -7 3 5 9 7 14 4 5 -3 11
-1 15 5 3 5 9 10 13 10 3 0 1 -5 -6 -12z m-437 -36 c-3 -3 0 -11 6 -18 7 -9 6
-14 -3 -20 -7 -4 -10 -3 -5 1 4 5 0 16 -8 25 -13 15 -13 17 0 17 8 0 13 -3 10
-5z m251 -4 c5 4 5 3 1 -2 -12 -15 -34 -15 -34 0 0 9 4 11 12 4 7 -5 16 -6 21
-2z m2144 -3 c0 -2 -6 -8 -13 -14 -10 -8 -14 -7 -14 2 0 8 6 14 14 14 7 0 13
-1 13 -2z m697 -10 c0 -8 -4 -12 -9 -9 -5 3 -6 10 -3 15 9 13 12 11 12 -6z
m-1827 -1 c0 -8 -19 -13 -24 -6 -3 5 1 9 9 9 8 0 15 -2 15 -3z m960 3 c0 -2
-10 -12 -22 -23 l-23 -19 19 23 c18 21 26 27 26 19z m-1108 -18 c2 -2 1 -3 -1
-2 -2 2 -9 -2 -16 -7 -8 -7 -12 -5 -12 4 0 12 22 16 29 5z m198 7 c0 -2 -8
-10 -17 -17 -16 -13 -17 -12 -4 4 13 16 21 21 21 13z m1745 -5 c3 -5 2 -12 -3
-15 -5 -3 -9 1 -9 9 0 17 3 19 12 6z m-2770 -10 c3 -5 2 -12 -3 -15 -5 -3 -9
1 -9 9 0 17 3 19 12 6z m32 -18 c-4 -3 -1 -13 6 -22 10 -14 10 -14 -4 -4 -9 7
-20 9 -25 5 -4 -4 -2 1 5 11 7 9 16 17 19 17 3 0 2 -3 -1 -7z m508 -2 c3 -5 2
-12 -3 -15 -5 -3 -9 1 -9 9 0 17 3 19 12 6z m612 2 c-4 -3 0 -14 8 -23 13 -14
13 -17 0 -17 -8 0 -12 4 -9 8 2 4 0 10 -6 14 -10 6 -5 25 7 25 4 0 3 -3 0 -7z
m1383 3 c0 -2 -8 -10 -17 -17 -16 -13 -17 -12 -4 4 13 16 21 21 21 13z m-2813
-20 c0 -8 -5 -14 -11 -13 -5 1 -10 -3 -11 -10 0 -23 -11 -22 -11 2 0 13 3 22
7 19 4 -2 10 0 14 6 8 14 12 13 12 -4z m2092 7 c12 8 11 6 -2 -9 -9 -11 -14
-25 -10 -29 5 -5 1 -4 -8 3 -9 6 -18 9 -22 6 -3 -3 -4 2 -2 13 2 10 4 20 4 23
1 2 6 -1 13 -8 9 -9 15 -9 27 1z m177 -20 c-2 -9 -10 -17 -19 -19 -11 -1 -14
2 -10 9 4 7 8 15 9 20 1 4 2 10 3 13 3 13 19 -8 17 -23z m139 4 c1 -7 7 -11
14 -9 7 1 10 -2 6 -8 -4 -7 -11 -8 -18 -1 -7 5 -15 9 -19 8 -3 -1 -10 2 -15 6
-4 5 -1 7 7 5 9 -2 14 3 12 12 -2 8 0 11 5 7 4 -5 8 -14 8 -20z m672 8 c0 -8
-4 -12 -9 -9 -5 3 -6 10 -3 15 9 13 12 11 12 -6z m-2607 2 c0 -2 -10 -12 -22
-23 l-23 -19 19 23 c18 21 26 27 26 19z m35 -25 c-3 -3 -12 -7 -21 -8 -11 -2
-12 1 -5 10 6 7 7 17 3 22 -4 4 1 2 11 -5 9 -8 15 -16 12 -19z m124 21 c-3
-21 3 -24 19 -12 14 11 15 11 4 -1 -7 -8 -24 -15 -37 -16 -24 -1 -24 0 -9 18
18 19 25 22 23 11z m57 -8 c-1 -8 -5 -17 -8 -21 -5 -4 -4 16 1 34 3 9 9 -1 7
-13z m353 7 c9 7 13 8 9 4 -4 -5 -3 -15 2 -21 7 -9 3 -12 -17 -10 -17 0 -27 7
-29 19 -2 14 0 16 8 8 9 -9 16 -8 27 0z m357 -4 c5 4 0 -3 -10 -15 -13 -16
-23 -20 -31 -13 -6 5 -15 8 -18 5 -4 -3 -4 -2 -1 3 3 4 11 7 17 7 7 1 11 7 9
15 -2 10 0 11 11 2 8 -7 18 -8 23 -4z m474 7 c0 -2 -6 -8 -13 -14 -10 -8 -14
-7 -14 2 0 8 6 14 14 14 7 0 13 -1 13 -2z m109 -9 c10 -12 9 -14 -6 -11 -10 1
-22 0 -28 -4 -5 -3 -18 -6 -27 -7 -10 -1 -20 -2 -23 -3 -11 -2 -15 -1 -15 7 0
4 9 8 20 8 11 1 22 3 25 4 3 1 9 3 14 4 5 0 13 4 17 9 10 9 10 9 23 -7z
m-1195 -5 c3 -5 -1 -14 -8 -20 -12 -10 -14 -9 -11 6 2 10 4 19 4 21 2 5 10 2
15 -7z m142 -4 c4 -3 -3 -5 -14 -2 -12 2 -24 -1 -27 -6 -4 -5 -11 -7 -16 -3
-5 3 -7 9 -5 13 6 9 52 8 62 -2z m51 -1 c0 -8 -5 -14 -11 -13 -6 1 -9 -5 -8
-13 2 -8 0 -11 -4 -7 -11 11 -14 38 -4 32 5 -3 11 -1 15 5 8 14 12 13 12 -4z
m140 -1 c0 -6 -6 -12 -12 -12 -6 0 -12 6 -12 12 0 6 6 12 12 12 6 0 12 -6 12
-12z m80 2 c0 -7 -11 -13 -23 -13 -12 0 -20 4 -18 8 3 5 9 6 14 3 5 -3 11 -1
15 5 8 13 12 13 12 -3z m332 0 c8 -10 7 -14 -2 -14 -8 0 -14 6 -14 14 0 7 1
13 2 13 2 0 8 -6 14 -13z m495 5 c3 -5 -1 -9 -9 -9 -8 0 -12 4 -9 9 3 4 7 8 9
8 2 0 6 -4 9 -8z m524 -2 c1 -2 11 -3 21 -4 11 0 22 -3 25 -6 2 -3 -28 -5 -69
-5 -40 0 -71 3 -69 7 2 4 13 5 24 3 11 -2 22 0 25 5 4 7 34 7 43 0z m503 -7
c12 -16 12 -17 -2 -6 -9 7 -20 9 -24 5 -5 -4 -5 -1 -1 6 9 16 11 15 27 -5z
m-2761 3 c0 -2 -6 -9 -14 -15 -11 -9 -16 -9 -22 0 -4 7 -3 9 4 5 6 -3 13 -2
17 4 6 10 15 14 15 6z m286 -8 c3 -4 -1 -5 -10 -4 -8 1 -18 5 -22 8 -3 4 1 5
10 4 8 -1 18 -5 22 -8z m158 4 c3 -5 -1 -9 -9 -9 -8 0 -12 4 -9 9 3 4 7 8 9 8
2 0 6 -4 9 -8z m96 2 c0 -8 -19 -13 -24 -6 -3 5 1 9 9 9 8 0 15 -2 15 -3z
m463 -10 c-3 -9 -23 -13 -36 -6 -4 2 -5 7 -2 12 7 11 41 6 38 -6z m401 8 c3
-5 -1 -9 -9 -9 -8 0 -12 4 -9 9 3 4 7 8 9 8 2 0 6 -4 9 -8z m1054 -71 c2 -1 0
-6 -4 -12 -4 -8 -9 -8 -17 0 -7 7 -15 7 -26 -2 -14 -10 -14 -10 -3 5 11 13 23
16 50 9z m276 1 c3 -5 -1 -9 -9 -9 -8 0 -12 4 -9 9 3 4 7 8 9 8 2 0 6 -4 9 -8z
m40 0 c3 -5 -1 -9 -9 -9 -8 0 -12 4 -9 9 3 4 7 8 9 8 2 0 6 -4 9 -8z m-3077
-17 c0 -8 -4 -12 -9 -9 -5 3 -6 10 -3 15 9 13 12 11 12 -6z m387 7 c3 -5 -1
-9 -9 -9 -8 0 -12 4 -9 9 3 4 7 8 9 8 2 0 6 -4 9 -8z m51 -1 c-9 -8 -36 -10
-30 -2 2 4 11 8 20 8 8 0 13 -3 10 -6z m89 1 c3 -5 -1 -9 -9 -9 -8 0 -12 4 -9
9 3 4 7 8 9 8 2 0 6 -4 9 -8z m136 2 c0 -8 -19 -13 -24 -6 -3 5 1 9 9 9 8 0
15 -2 15 -3z m64 -5 c3 -3 -5 -5 -19 -5 -13 0 -22 3 -19 7 4 8 30 6 38 -2z
m130 2 c-7 -8 -74 -9 -69 -1 2 3 19 6 39 6 19 0 33 -3 30 -5z m100 0 c-7 -8
-54 -9 -59 -2 -2 4 12 7 30 7 19 0 32 -3 29 -5z m60 0 c-8 -8 -34 -10 -38 -2
-3 4 6 7 19 7 14 0 22 -2 19 -5z m170 -2 c3 -3 -10 -5 -29 -4 -18 0 -36 3 -39
6 -3 3 10 5 29 4 18 0 36 -3 39 -6z m100 3 c3 -5 -1 -9 -9 -9 -8 0 -12 4 -9 9
3 4 7 8 9 8 2 0 6 -4 9 -8z m81 -3 c3 -3 -6 -5 -19 -5 -14 1 -28 4 -31 7 -3 3
6 5 19 5 14 -1 28 -4 31 -7z m139 1 c3 -3 -19 -5 -49 -5 -29 0 -52 2 -50 5 5
7 92 7 99 0z m51 1 c-9 -8 -36 -10 -30 -2 2 4 11 8 20 8 8 0 13 -3 10 -6z m45
3 c0 -8 -19 -13 -24 -6 -3 5 1 9 9 9 8 0 15 -2 15 -3z m40 0 c0 -8 -19 -13
-24 -6 -3 5 1 9 9 9 8 0 15 -2 15 -3z m54 -3 c-8 -8 -34 -10 -38 -2 -3 4 6 7
19 7 14 0 22 -2 19 -5z m86 3 c0 -8 -19 -13 -24 -6 -3 5 1 9 9 9 8 0 15 -2 15
-3z m44 -2 c3 -5 -1 -9 -9 -9 -8 0 -12 4 -9 9 3 4 7 8 9 8 2 0 6 -4 9 -8z
m171 -2 c-5 -7 -92 -7 -99 0 -3 3 19 5 49 5 29 0 52 -2 50 -5z m85 4 c0 -8
-19 -13 -24 -6 -3 5 1 9 9 9 8 0 15 -2 15 -3z m46 -6 c3 -4 -1 -5 -10 -4 -8 1
-18 5 -22 8 -3 4 1 5 10 4 8 -1 18 -5 22 -8z m94 6 c0 -8 -19 -13 -24 -6 -3 5
1 9 9 9 8 0 15 -2 15 -3z m124 -5 c3 -2 -10 -5 -29 -5 -18 0 -32 3 -30 7 5 7
52 6 59 -2z m40 3 c3 -5 -1 -9 -9 -9 -8 0 -12 4 -9 9 3 4 7 8 9 8 2 0 6 -4 9
-8z m40 0 c3 -5 -1 -9 -9 -9 -8 0 -12 4 -9 9 3 4 7 8 9 8 2 0 6 -4 9 -8z m60
0 c3 -5 -1 -9 -9 -9 -8 0 -12 4 -9 9 3 4 7 8 9 8 2 0 6 -4 9 -8z m71 -1 c-9
-8 -36 -10 -30 -2 2 4 11 8 20 8 8 0 13 -3 10 -6z m45 3 c0 -8 -19 -13 -24 -6
-3 5 1 9 9 9 8 0 15 -2 15 -3z m580 0 c0 -8 -19 -13 -24 -6 -3 5 1 9 9 9 8 0
15 -2 15 -3z m-3135 -13 c-9 -8 -36 -10 -30 -2 2 4 11 8 20 8 8 0 13 -3 10 -6z
m2469 -212 c-3 -5 -10 -7 -15 -3 -5 3 -7 10 -3 15 3 5 10 7 15 3 5 -3 7 -10 3
-15z m360 10 c3 -3 -5 -5 -19 -5 -13 0 -22 3 -19 7 4 8 30 6 38 -2z m40 3 c3
-5 -1 -9 -9 -9 -8 0 -12 4 -9 9 3 4 7 8 9 8 2 0 6 -4 9 -8z m180 0 c3 -5 -1
-9 -9 -9 -8 0 -12 4 -9 9 3 4 7 8 9 8 2 0 6 -4 9 -8z m-2882 -17 c10 2 20 0
23 -4 4 -7 -40 -7 -55 -1 -3 1 -9 2 -13 1 -5 -1 -6 3 -2 9 4 7 11 8 18 2 7 -5
20 -8 29 -7z m422 3 c-4 -5 -9 -7 -12 -4 -3 3 -11 1 -18 -5 -8 -7 -14 -6 -20
2 -4 7 -3 9 4 5 6 -3 13 -3 16 2 3 5 12 9 20 9 8 0 13 -4 10 -9z m36 -3 c-18
-21 34 -41 65 -25 12 6 31 6 40 0 13 -8 87 -7 101 2 6 4 11 2 11 -5 0 -9 -33
-12 -126 -12 -69 1 -131 -3 -138 -7 -6 -5 -14 -5 -18 2 -3 6 -12 7 -18 4 -7
-4 -8 -3 -4 2 5 5 23 9 40 9 26 0 32 4 31 21 -1 11 5 21 12 21 10 0 11 -4 4
-12z m94 7 c3 -5 -1 -9 -9 -9 -8 0 -12 4 -9 9 3 4 7 8 9 8 2 0 6 -4 9 -8z m70
-1 c-7 -8 -54 -9 -49 -1 2 3 15 6 29 6 14 0 23 -2 20 -5z m80 0 c-8 -8 -34
-10 -38 -2 -3 4 6 7 19 7 14 0 22 -2 19 -5z m60 0 c-8 -8 -34 -10 -38 -2 -3 4
6 7 19 7 14 0 22 -2 19 -5z m120 -1 c-3 -3 -10 -5 -15 -5 -5 0 -9 -3 -9 -7 0
-5 2 -7 3 -5 2 1 11 -4 20 -11 11 -9 17 -10 22 -2 4 7 11 7 18 2 7 -5 33 -8
59 -7 26 0 45 -2 43 -5 -2 -3 -61 -5 -132 -5 -70 1 -133 -3 -140 -7 -6 -5 -14
-5 -17 1 -4 5 -15 8 -25 6 -10 -2 -18 3 -18 11 0 8 5 10 11 6 9 -7 114 -9 143
-3 3 0 -1 9 -10 19 -15 17 -14 18 18 18 19 0 32 -3 29 -6z m150 -1 c3 -3 -19
-5 -49 -4 -29 0 -56 3 -59 6 -3 3 19 5 49 4 29 0 56 -3 59 -6z m71 2 c-9 -8
-36 -10 -30 -2 2 4 11 8 20 8 8 0 13 -3 10 -6z m47 -2 c2 -2 1 -3 -1 -2 -2 2
-9 -2 -16 -7 -8 -7 -12 -5 -12 4 0 12 22 16 29 5z m115 -4 c0 -8 -4 -12 -9 -9
-5 3 -6 10 -3 15 9 13 12 11 12 -6z m46 0 c-4 -14 -30 -14 -30 0 0 7 7 12 16
10 9 -1 15 -6 14 -10z m42 -8 c0 -7 6 -13 13 -13 6 -1 13 -2 15 -4 9 -7 38 -7
43 1 3 6 11 6 17 1 11 -7 29 -8 42 -2 12 6 31 6 40 0 9 -5 19 -6 41 -1 4 0 1
7 -5 14 -6 8 -27 13 -51 12 -22 -1 -38 1 -34 4 3 3 30 6 59 6 40 1 52 -2 44
-11 -19 -23 17 -30 143 -29 69 0 125 -2 123 -5 -2 -4 -31 -6 -65 -5 -34 1 -63
-2 -66 -7 -3 -5 -11 -5 -17 -1 -19 12 -290 11 -306 -1 -11 -8 -13 -8 -8 1 4 6
3 14 -2 17 -5 4 -12 2 -16 -4 -4 -6 -10 -8 -15 -5 -5 3 -12 1 -15 -5 -5 -8
-12 -7 -22 2 -18 14 -20 14 -46 -10 -15 -13 -18 -13 -15 -2 2 11 -9 14 -49 14
-28 0 -49 4 -47 8 3 5 9 6 14 3 5 -3 11 -1 15 5 4 6 12 7 18 3 7 -4 40 -8 75
-8 61 -1 84 7 62 20 -6 4 -8 11 -4 16 7 12 19 3 19 -14z m99 12 c3 -2 -15 -5
-39 -5 -24 0 -42 3 -40 6 5 8 72 7 79 -1z m382 -1 c4 -4 12 -4 18 -1 21 14 38
12 26 -2 -9 -11 -37 -13 -47 -5 -7 5 -69 6 -78 1 -19 -10 -32 -9 -32 3 0 13
100 16 113 4z m105 -5 c13 -16 12 -17 -3 -4 -17 13 -22 21 -14 21 2 0 10 -8
17 -17z m103 8 c-7 -8 -54 -9 -49 -1 2 3 15 6 29 6 14 0 23 -2 20 -5z m50 -4
c4 4 36 8 71 8 61 1 63 0 48 -17 -15 -16 -11 -23 10 -19 5 1 6 -2 3 -7 -3 -5
-32 -8 -66 -7 -34 1 -64 -3 -66 -7 -3 -5 -11 -5 -17 0 -14 10 -187 10 -203 0
-6 -4 -11 -1 -11 6 0 8 18 12 59 11 33 -1 62 3 64 7 3 5 12 4 19 -2 9 -8 15
-8 20 0 3 6 12 7 18 3 17 -11 50 -11 64 -1 6 5 14 5 17 0 7 -12 56 -9 56 3 0
6 -9 11 -20 11 -11 1 -22 3 -25 4 -13 6 -31 5 -41 -2 -7 -5 -17 -1 -25 9 -12
16 -12 17 2 6 9 -7 19 -10 23 -6z m173 -2 c0 -6 -6 -12 -12 -12 -6 0 -12 6
-12 12 0 6 6 12 12 12 6 0 12 -6 12 -12z m523 9 c0 -8 -19 -13 -24 -6 -3 5 1
9 9 9 8 0 15 -2 15 -3z m-2850 -10 c0 -8 -19 -13 -24 -6 -3 5 1 9 9 9 8 0 15
-2 15 -3z m160 0 c0 -8 -19 -13 -24 -6 -3 5 1 9 9 9 8 0 15 -2 15 -3z m2545
-27 c4 5 5 2 1 -5 -6 -10 -11 -10 -21 -2 -9 8 -15 8 -20 0 -3 -6 -11 -8 -16
-4 -6 4 -6 11 2 20 10 13 14 12 29 -1 9 -8 20 -12 25 -8z m-101 -8 c-3 -5 -10
-7 -15 -3 -5 3 -7 10 -3 15 3 5 10 7 15 3 5 -3 7 -10 3 -15z m440 0 c-3 -5
-10 -7 -15 -3 -5 3 -7 10 -3 15 3 5 10 7 15 3 5 -3 7 -10 3 -15z m-3050 3 c3
-5 -1 -9 -9 -9 -8 0 -12 4 -9 9 3 4 7 8 9 8 2 0 6 -4 9 -8z m40 0 c3 -5 -1 -9
-9 -9 -8 0 -12 4 -9 9 3 4 7 8 9 8 2 0 6 -4 9 -8z m81 -10 c-10 -11 -35 -10
-42 0 -3 6 -1 8 5 4 6 -3 13 -2 17 4 4 6 11 8 16 4 6 -3 8 -9 4 -12z m296 -5
c-7 -7 -7 -15 2 -26 10 -14 10 -14 -5 -3 -13 11 -16 23 -9 50 1 2 6 0 12 -4 8
-4 8 -9 0 -17z m784 12 c3 -3 -7 -5 -22 -4 -16 1 -33 -2 -39 -7 -7 -5 -16 -3
-22 5 -9 10 -2 13 33 12 24 0 46 -3 50 -6z m1175 5 c0 -8 -19 -13 -24 -6 -3 5
1 9 9 9 8 0 15 -2 15 -3z m200 0 c0 -8 -19 -13 -24 -6 -3 5 1 9 9 9 8 0 15 -2
15 -3z m180 0 c0 -8 -19 -13 -24 -6 -3 5 1 9 9 9 8 0 15 -2 15 -3z m200 0 c0
-8 -19 -13 -24 -6 -3 5 1 9 9 9 8 0 15 -2 15 -3z m-3015 -12 c-3 -3 0 -11 6
-19 17 -20 5 -16 -14 5 -15 16 -15 19 -2 19 8 0 13 -3 10 -5z m445 2 c0 -8
-19 -13 -24 -6 -3 5 1 9 9 9 8 0 15 -2 15 -3z m2577 -29 c0 -8 -4 -12 -9 -9
-5 3 -6 10 -3 15 9 13 12 11 12 -6z m-2482 -4 c3 -5 2 -12 -3 -15 -5 -3 -9 1
-9 9 0 17 3 19 12 6z m662 -16 c0 -8 -4 -12 -9 -9 -5 3 -6 10 -3 15 9 13 12
11 12 -6z m832 1 c9 -11 9 -16 -1 -22 -7 -4 -10 -4 -6 1 4 4 3 14 -3 22 -6 7
-9 13 -6 13 2 0 10 -6 16 -14z m-1864 -5 c-3 -5 -1 -12 4 -15 8 -5 8 -18 2
-44 -1 -2 -6 0 -11 3 -8 5 -8 11 0 20 8 9 8 15 0 20 -10 6 -5 25 6 25 3 0 3
-4 -1 -9z m585 5 c0 -2 -8 -10 -17 -17 -16 -13 -17 -12 -4 4 13 16 21 21 21
13z m415 -15 c3 -5 2 -12 -3 -15 -5 -3 -9 1 -9 9 0 17 3 19 12 6z m1497 -14
c-5 -7 -8 -24 -7 -39 1 -15 -1 -25 -5 -23 -6 4 -6 51 0 65 1 3 2 9 1 13 -1 5
3 6 9 2 7 -4 7 -11 2 -18z m-1167 -6 c-9 -8 -36 -10 -30 -2 2 4 11 8 20 8 8 0
13 -3 10 -6z m150 -35 c1 -21 -3 -33 -12 -33 -7 0 -11 3 -8 5 3 3 0 11 -7 19
-9 11 -8 13 3 11 9 -2 14 5 13 20 -1 12 1 20 4 17 4 -3 7 -21 7 -39z m691 29
c-1 -8 -5 -17 -8 -21 -5 -4 -4 16 1 34 3 9 9 -1 7 -13z m369 6 c3 -5 2 -12 -3
-15 -5 -3 -9 1 -9 9 0 17 3 19 12 6z m-2278 -16 c0 -8 -4 -12 -9 -9 -5 3 -6
10 -3 15 9 13 12 11 12 -6z m94 -2 c13 -16 12 -17 -3 -4 -10 7 -18 15 -18 17
0 8 8 3 21 -13z m153 9 c3 -5 -1 -9 -9 -9 -8 0 -12 4 -9 9 3 4 7 8 9 8 2 0 6
-4 9 -8z m201 -1 c3 -5 2 -12 -3 -15 -5 -3 -9 1 -9 9 0 17 3 19 12 6z m95 3
c0 -8 -19 -13 -24 -6 -3 5 1 9 9 9 8 0 15 -2 15 -3z m1204 -2 c3 -5 -1 -9 -9
-9 -8 0 -12 4 -9 9 3 4 7 8 9 8 2 0 6 -4 9 -8z m841 -1 c3 -5 2 -12 -3 -15 -5
-3 -9 1 -9 9 0 17 3 19 12 6z m-318 -36 c0 -8 -4 -12 -9 -9 -5 3 -6 10 -3 15
9 13 12 11 12 -6z m-2170 -12 c0 -9 -4 -10 -14 -2 -7 6 -13 12 -13 14 0 1 6 2
13 2 8 0 14 -6 14 -14z m1223 13 c0 -2 -8 -10 -17 -17 -16 -13 -17 -12 -4 4
13 16 21 21 21 13z m479 -40 c8 -10 9 -16 1 -21 -6 -4 -9 -1 -8 7 2 7 -3 12
-10 10 -8 -1 -11 2 -7 8 8 13 10 13 24 -4z m436 5 c3 -5 2 -12 -3 -15 -5 -3
-9 1 -9 9 0 17 3 19 12 6z m-2490 -10 c3 -5 2 -12 -3 -15 -5 -3 -9 1 -9 9 0
17 3 19 12 6z m546 -8 c13 -16 12 -17 -3 -4 -10 7 -18 15 -18 17 0 8 8 3 21
-13z m134 -12 c3 -5 2 -12 -3 -15 -5 -3 -9 1 -9 9 0 17 3 19 12 6z m-578 -16
c0 -8 -4 -12 -9 -9 -5 3 -6 10 -3 15 9 13 12 11 12 -6z m2840 0 c0 -8 -4 -12
-9 -9 -5 3 -6 10 -3 15 9 13 12 11 12 -6z m-2948 -2 c-1 -5 0 -10 1 -13 7 -19
7 -41 0 -45 -5 -3 -7 3 -5 15 2 11 -1 22 -6 25 -5 4 -7 11 -4 16 7 11 15 12
14 2z m367 -5 c4 -7 4 -10 -1 -6 -4 4 -14 3 -21 -3 -8 -7 -14 -6 -20 2 -4 7
-3 9 4 5 6 -3 13 -2 17 4 8 13 12 13 21 -2z m2431 -3 c0 -8 -4 -12 -9 -9 -5 3
-6 10 -3 15 9 13 12 11 12 -6z m-2017 -11 c0 -8 -19 -13 -24 -6 -3 5 1 9 9 9
8 0 15 -2 15 -3z m1010 -8 c0 -2 -6 -9 -14 -15 -11 -9 -16 -9 -22 0 -4 7 -3 9
4 5 6 -3 13 -2 17 4 6 10 15 14 15 6z m697 -11 c0 -8 -4 -12 -9 -9 -5 3 -6 10
-3 15 9 13 12 11 12 -6z m-2147 -1 c0 -8 -19 -13 -24 -6 -3 5 1 9 9 9 8 0 15
-2 15 -3z m461 -17 c-6 -8 -8 -16 -5 -19 3 -3 1 -9 -4 -12 -6 -3 -9 0 -8 6 2
16 15 38 23 38 3 0 0 -6 -6 -13z m-944 -10 c0 -8 -6 -14 -14 -14 -9 0 -10 4
-2 14 6 7 12 13 14 13 1 0 2 -6 2 -13z m500 -2 c0 -8 -4 -12 -9 -9 -5 3 -6 10
-3 15 9 13 12 11 12 -6z m2547 7 c3 -5 -1 -9 -9 -9 -8 0 -12 4 -9 9 3 4 7 8 9
8 2 0 6 -4 9 -8z m-817 -17 c0 -6 -6 -12 -12 -12 -6 0 -12 6 -12 12 0 6 6 12
12 12 6 0 12 -6 12 -12z m103 11 c0 -2 -6 -9 -14 -15 -11 -9 -16 -9 -22 0 -4
7 -3 9 4 5 6 -3 13 -2 17 4 6 10 15 14 15 6z m337 -11 c0 -8 -4 -12 -9 -9 -5
3 -6 10 -3 15 9 13 12 11 12 -6z m-2100 -20 c0 -8 -4 -12 -9 -9 -5 3 -6 10 -3
15 9 13 12 11 12 -6z m960 8 c-4 -3 0 -14 9 -24 12 -13 12 -19 3 -25 -7 -4
-10 -3 -6 3 4 6 0 16 -8 23 -14 11 -12 30 2 30 4 0 3 -3 0 -7z m558 -12 c3 -5
2 -12 -3 -15 -5 -3 -9 1 -9 9 0 17 3 19 12 6z m-1948 -26 c0 -8 -4 -12 -9 -9
-5 3 -6 10 -3 15 9 13 12 11 12 -6z m676 -5 c10 -12 9 -12 -4 -2 -10 8 -19 8
-26 1 -6 -6 -10 -5 -10 5 0 17 23 15 40 -4z m174 2 c-13 -15 -14 -21 -4 -32
10 -12 9 -12 -6 -1 -16 13 -16 15 -1 32 10 11 19 19 22 19 3 0 -2 -8 -11 -18z
m-882 -11 c3 -5 2 -12 -3 -15 -5 -3 -9 1 -9 9 0 17 3 19 12 6z m399 1 c3 -5
-1 -9 -9 -9 -8 0 -12 4 -9 9 3 4 7 8 9 8 2 0 6 -4 9 -8z m832 -27 c-1 -8 -5
-17 -8 -21 -5 -4 -4 16 1 34 3 9 9 -1 7 -13z m-1448 -8 c-2 -2 4 -12 12 -23
14 -19 14 -19 -7 0 -13 10 -20 23 -17 28 3 5 8 7 11 4 2 -2 3 -6 1 -9z m606 5
c3 -5 -1 -9 -9 -9 -8 0 -12 4 -9 9 3 4 7 8 9 8 2 0 6 -4 9 -8z m-90 -11 c3 -5
-2 -15 -12 -22 -15 -12 -16 -12 -5 2 7 9 10 19 6 22 -3 4 -4 7 0 7 3 0 8 -4
11 -9z m-268 -35 c0 -14 -3 -23 -7 -20 -6 3 -6 22 0 42 3 10 7 -2 7 -22z
m2040 2 c19 -23 19 -23 -2 -5 -11 9 -24 14 -29 10 -4 -5 -5 -2 -1 5 9 16 10
16 32 -10z m140 -14 c2 -12 0 -14 -9 -5 -6 6 -12 18 -13 27 -2 12 0 14 9 5 6
-6 12 -18 13 -27z m-642 18 c3 -5 -1 -9 -9 -9 -8 0 -12 4 -9 9 3 4 7 8 9 8 2
0 6 -4 9 -8z m-1110 -10 c3 -5 -1 -9 -9 -9 -8 0 -12 4 -9 9 3 4 7 8 9 8 2 0 6
-4 9 -8z m-18 -57 c-1 -8 -5 -17 -8 -21 -4 -3 -5 2 -4 13 2 10 -2 25 -8 33 -9
13 -9 13 6 2 9 -7 15 -19 14 -27z m1708 27 c3 -5 -1 -9 -9 -9 -8 0 -12 4 -9 9
3 4 7 8 9 8 2 0 6 -4 9 -8z m385 -28 c-6 -8 -15 -11 -21 -8 -5 4 -5 11 1 18 6
7 7 17 3 22 -4 4 1 2 11 -5 13 -10 15 -17 6 -27z m-1998 2 c-6 -7 -8 -16 -4
-19 3 -4 4 -7 1 -7 -3 0 -11 7 -18 16 -11 12 -11 15 1 12 8 -2 13 3 11 10 -1
8 2 11 8 7 8 -5 8 -11 1 -19z m549 8 c0 -8 -19 -13 -24 -6 -3 5 1 9 9 9 8 0
15 -2 15 -3z m-780 -20 c0 -8 -19 -13 -24 -6 -3 5 1 9 9 9 8 0 15 -2 15 -3z
m2257 -9 c0 -8 -4 -12 -9 -9 -5 3 -6 10 -3 15 9 13 12 11 12 -6z m-2563 -3 c3
-5 -1 -9 -9 -9 -8 0 -12 4 -9 9 3 4 7 8 9 8 2 0 6 -4 9 -8z m771 -9 c-1 -10 3
-25 9 -33 9 -13 9 -13 -6 -2 -13 10 -16 26 -9 50 4 11 9 -2 6 -15z m92 0 c-4
-3 -2 -11 3 -18 7 -8 5 -12 -4 -12 -8 0 -12 7 -11 16 5 22 4 21 12 21 3 0 3
-3 0 -7z m1189 -5 c3 -4 -1 -5 -10 -4 -8 1 -18 5 -22 8 -3 4 1 5 10 4 8 -1 18
-5 22 -8z m479 3 c3 -5 2 -12 -3 -15 -5 -3 -9 1 -9 9 0 17 3 19 12 6z m-2238
-16 c0 -8 -4 -12 -9 -9 -5 3 -6 10 -3 15 9 13 12 11 12 -6z m903 11 c0 -2 -8
-10 -17 -17 -16 -13 -17 -12 -4 4 13 16 21 21 21 13z m540 -2 c0 -8 -19 -13
-24 -6 -3 5 1 9 9 9 8 0 15 -2 15 -3z m1000 0 c0 -8 -19 -13 -24 -6 -3 5 1 9
9 9 8 0 15 -2 15 -3z m-2110 -8 c0 -2 -8 -10 -17 -17 -16 -13 -17 -12 -4 4 13
16 21 21 21 13z m471 -9 c-6 -8 -7 -18 -3 -22 4 -5 1 -5 -6 -1 -10 6 -10 11
-1 22 6 8 14 14 16 14 3 0 0 -6 -6 -13z m806 -2 c0 -8 -4 -12 -9 -9 -5 3 -6
10 -3 15 9 13 12 11 12 -6z m-1513 -13 c3 -5 -1 -9 -9 -9 -8 0 -12 4 -9 9 3 4
7 8 9 8 2 0 6 -4 9 -8z m2132 -16 c0 -14 -3 -23 -7 -20 -6 3 -6 22 0 42 3 10
7 -2 7 -22z m49 15 c3 -5 2 -12 -3 -15 -5 -3 -9 1 -9 9 0 17 3 19 12 6z
m-2668 -24 c0 -8 -6 -14 -14 -14 -9 0 -10 4 -2 14 6 7 12 13 14 13 1 0 2 -6 2
-13z m2967 5 c3 -5 -1 -9 -9 -9 -8 0 -12 4 -9 9 3 4 7 8 9 8 2 0 6 -4 9 -8z
m-2270 -10 c3 -5 -1 -9 -9 -9 -8 0 -12 4 -9 9 3 4 7 8 9 8 2 0 6 -4 9 -8z
m1611 -30 c-2 -9 -4 -19 -5 -22 -1 -3 -2 -9 -1 -13 1 -5 -3 -6 -9 -2 -7 4 -8
11 -2 18 5 7 8 20 7 30 -2 9 0 15 5 12 5 -3 7 -13 5 -23z m-2170 9 c3 -5 2
-12 -3 -15 -5 -3 -9 1 -9 9 0 17 3 19 12 6z m1772 2 c-4 -3 -1 -13 6 -22 11
-14 10 -14 -5 -2 -16 12 -16 31 -1 31 4 0 3 -3 0 -7z m-161 -27 c1 -7 -4 -13
-12 -13 -9 0 -11 4 -4 12 5 7 8 15 5 18 -3 4 -2 5 2 2 4 -3 8 -11 9 -19z
m1215 -3 c13 -16 12 -17 -3 -4 -10 7 -18 15 -18 17 0 8 8 3 21 -13z m-2172 0
c14 10 14 10 4 -4 -7 -9 -9 -20 -5 -25 4 -5 -2 -1 -14 9 -11 9 -24 14 -29 10
-4 -5 -5 -2 0 5 5 10 10 11 18 3 7 -7 15 -7 26 2z m441 -3 c3 -1 9 -2 13 -1 5
1 6 -3 2 -9 -5 -8 -11 -8 -19 -1 -8 7 -16 7 -23 0 -6 -6 -10 -5 -10 5 0 11 15
14 37 6z m475 1 c3 -5 2 -12 -3 -15 -5 -3 -9 1 -9 9 0 17 3 19 12 6z m920 0
c3 -5 2 -12 -3 -15 -5 -3 -9 1 -9 9 0 17 3 19 12 6z m-2110 -19 c-3 -3 0 -11
6 -19 6 -7 10 -13 8 -14 -31 -6 -40 -6 -45 2 -3 5 -2 8 3 7 4 -2 8 2 8 7 0 6
-4 9 -8 7 -5 -1 -6 1 -3 6 3 5 12 9 21 9 8 0 13 -3 10 -5z m2154 -5 c8 -10 7
-14 -2 -14 -8 0 -14 6 -14 14 0 7 1 13 2 13 2 0 8 -6 14 -13z m-1508 -14 c13
-16 12 -17 -3 -4 -10 7 -18 15 -18 17 0 8 8 3 21 -13z m1807 5 c-2 -7 3 -12
10 -10 8 1 11 -2 7 -8 -5 -8 -11 -8 -21 1 -7 6 -11 15 -8 20 8 13 14 11 12 -3z
m-3044 -19 c-3 -5 -10 -7 -15 -3 -5 3 -7 10 -3 15 3 5 10 7 15 3 5 -3 7 -10 3
-15z m1901 12 c3 -5 2 -12 -3 -15 -5 -3 -9 1 -9 9 0 17 3 19 12 6z m444 -5 c8
-10 9 -16 1 -21 -6 -4 -10 -3 -9 2 4 21 -2 24 -18 12 -16 -13 -17 -12 -4 4 16
21 16 21 30 3z m36 5 c3 -5 2 -12 -3 -15 -5 -3 -9 1 -9 9 0 17 3 19 12 6z
m490 -11 c10 -11 16 -20 13 -20 -3 0 -13 9 -23 20 -10 11 -16 20 -13 20 3 0
13 -9 23 -20z m-2925 4 c0 -8 -19 -13 -24 -6 -3 5 1 9 9 9 8 0 15 -2 15 -3z
m780 0 c0 -8 -19 -13 -24 -6 -3 5 1 9 9 9 8 0 15 -2 15 -3z m284 -2 c3 -5 -1
-9 -9 -9 -8 0 -12 4 -9 9 3 4 7 8 9 8 2 0 6 -4 9 -8z m420 -13 c-3 -5 -10 -7
-15 -3 -5 3 -7 10 -3 15 3 5 10 7 15 3 5 -3 7 -10 3 -15z m-750 3 c3 -5 -1 -9
-9 -9 -8 0 -12 4 -9 9 3 4 7 8 9 8 2 0 6 -4 9 -8z m516 2 c0 -8 -19 -13 -24
-6 -3 5 1 9 9 9 8 0 15 -2 15 -3z m570 -10 c0 -8 -19 -13 -24 -6 -3 5 1 9 9 9
8 0 15 -2 15 -3z m1080 0 c0 -8 -19 -13 -24 -6 -3 5 1 9 9 9 8 0 15 -2 15 -3z
m-710 -10 c0 -8 -19 -13 -24 -6 -3 5 1 9 9 9 8 0 15 -2 15 -3z"/>
<path d="M1026 2122 c-3 -5 1 -9 9 -9 8 0 12 4 9 9 -3 4 -7 8 -9 8 -2 0 -6 -4
-9 -8z"/>
<path d="M726 1768 c3 -5 10 -6 15 -3 13 9 11 12 -6 12 -8 0 -12 -4 -9 -9z"/>
<path d="M836 1758 c3 -5 10 -6 15 -3 13 9 11 12 -6 12 -8 0 -12 -4 -9 -9z"/>
<path d="M2436 778 c3 -5 10 -6 15 -3 13 9 11 12 -6 12 -8 0 -12 -4 -9 -9z"/>
</g>
</svg>
